<?xml version="1.0" standalone="no"?>
<!DOCTYPE svg PUBLIC "-//W3C//DTD SVG 1.1//EN" "http://www.w3.org/Graphics/SVG/1.1/DTD/svg11.dtd" >
<svg xmlns="http://www.w3.org/2000/svg">
<metadata></metadata>
<defs>
<font id="skyconsregular" horiz-adv-x="2048" >
<font-face units-per-em="2048" ascent="1638" descent="-410" />
<missing-glyph horiz-adv-x="600" />
<glyph unicode=" "  horiz-adv-x="600" />
<glyph unicode="&#x09;" horiz-adv-x="600" />
<glyph unicode="&#xa0;" horiz-adv-x="600" />
<glyph unicode="&#x25fc;" horiz-adv-x="500" d="M0 0z" />
<glyph unicode="&#xe000;" horiz-adv-x="500" />
<glyph unicode="&#xf000;" d="M60 198q0 -92 54 -144q53 -52 145 -52q57 0 120 22v186h-128v-40h79v-116q-20 -10 -67 -10q-69 0 -109.5 41.5t-40.5 115.5q0 72 42.5 114t113.5 42q46 0 86 -17l12 41q-36 18 -97 18q-96 0 -152.5 -56t-57.5 -145zM455 6h217v42h-166v347h-51v-389zM682 197 q0 -88 49 -142.5t126 -54.5q78 0 129 54t51 151q0 87 -48 141.5t-127 54.5q-78 0 -129 -56t-51 -148zM736 198q0 69 32.5 115.5t91.5 46.5t91.5 -47t32.5 -111q0 -69 -33.5 -115t-90.5 -46t-90.5 46t-33.5 111zM1102 7q34 -4 78 -4q95 0 134 36q33 31 33 78q0 40 -24 64.5 t-56 32.5v2q31 11 48.5 34t17.5 51q0 45 -32 69q-37 28 -107 28q-48 0 -92 -8v-383zM1152 44v149h42q44 0 72 -18.5t28 -56.5q0 -40 -28 -58t-72 -18q-22 0 -42 2zM1152 231v125q24 3 45 3q85 0 85 -63q0 -29 -22.5 -47t-61.5 -18h-46zM1385 6h52l40 123h138l42 -123h53 l-132 389h-61zM1488 168l38 112q16 54 20 71h1q8 -39 20 -71l38 -112h-117zM1767 6h217v42h-166v347h-51v-389z" />
<glyph unicode="&#xf001;" d="M0 610q0 -6 4 -9t9 -3h7h318h4q0 -4 1 -6v-649v-6q0 -23 23 -30q5 -1 13 -1h444h5q23 0 29 23q1 4 1 12v510q0 1 0.5 2.5t0.5 2.5h3q22 1 181 1t164 -1v-8v-505v-6q2 -26 26 -31h10h434h6q11 1 20 9t10 19v8q0 636 1 651q0 4 1 5h5q7 0 155.5 -0.5t154.5 -0.5q3 0 9 2 q11 3 6 14q-1 1 -3 4q-3 3 -4 5l-972 987l-10 10q-14 12 -31 8q-8 -1 -16 -9l-1001 -996q-1 -2 -5 -6z" />
<glyph unicode="&#xf002;" d="M0 768l1094 995v-631h954v-728h-954v-631z" />
<glyph unicode="&#xf003;" d="M38 115v-332q0 -16 11.5 -27.5t27.5 -11.5h1894q16 0 27.5 11.5t11.5 27.5v332q0 16 -11.5 27.5t-27.5 11.5h-1894q-16 0 -27.5 -11.5t-11.5 -27.5zM38 602q0 -16 11.5 -27t27.5 -11h1894q16 0 27.5 11t11.5 27v332q0 16 -11.5 27t-27.5 11h-1894q-16 0 -27.5 -11 t-11.5 -27v-332zM38 1421q0 -16 11.5 -27.5t27.5 -11.5h1894q16 0 27.5 11.5t11.5 27.5v332q0 16 -11.5 27.5t-27.5 11.5h-1894q-16 0 -27.5 -11.5t-11.5 -27.5v-332z" />
<glyph unicode="&#xf004;" d="M0 -201q0 -17 10 -30.5t26 -13.5h454q16 0 26 13.5t10 30.5v460q0 17 -10 30.5t-26 13.5h-454q-16 0 -26 -13.5t-10 -30.5v-460zM0 553q0 -17 10 -27.5t26 -10.5h454q16 0 26 10.5t10 27.5v446q0 17 -10 30.5t-26 13.5h-454q-16 0 -26 -13.5t-10 -30.5v-446zM0 1291 q0 -17 10 -26.5t26 -9.5h454q16 0 26 9.5t10 26.5v454q0 17 -10 26.5t-26 9.5h-454q-16 0 -26 -9.5t-10 -26.5v-454zM746 -201q0 -17 14 -30.5t30 -13.5h468q16 0 26 13.5t10 30.5v460q0 17 -10 30.5t-26 13.5h-468q-16 0 -30 -13.5t-14 -30.5v-460zM746 553q0 -16 13.5 -27 t30.5 -11h468q16 0 26 10.5t10 27.5v446q0 17 -10 30.5t-26 13.5h-468q-16 0 -30 -13.5t-14 -30.5v-446zM746 1291q0 -16 13.5 -26t30.5 -10h468q16 0 26 9.5t10 26.5v454q0 17 -10 26.5t-26 9.5h-468q-17 0 -30.5 -10t-13.5 -26v-454zM1506 -201q0 -17 11 -30.5t27 -13.5 h468q16 0 26 13.5t10 30.5v460q0 17 -10 30.5t-26 13.5h-468q-16 0 -27 -13.5t-11 -30.5v-460zM1506 553q0 -17 11 -27.5t27 -10.5h468q16 0 26 10.5t10 27.5v446q0 17 -10 30.5t-26 13.5h-468q-16 0 -27 -13.5t-11 -30.5v-446zM1506 1291q0 -16 10.5 -26t27.5 -10h468 q16 0 26 9.5t10 26.5v454q0 17 -10 26.5t-26 9.5h-468q-17 0 -27.5 -10t-10.5 -26v-454z" />
<glyph unicode="&#xf005;" d="M0 -214q0 -16 11.5 -27.5t27.5 -11.5h822q16 0 27 11.5t11 27.5v822q0 16 -11 27t-27 11h-822q-16 0 -27.5 -11t-11.5 -27v-822zM0 928q0 -16 11.5 -27.5t27.5 -11.5h822q16 0 27 11.5t11 27.5v822q0 16 -11 27.5t-27 11.5h-822q-16 0 -27.5 -11.5t-11.5 -27.5v-822z M1149 -214q0 -16 11 -27.5t27 -11.5h822q16 0 27.5 11.5t11.5 27.5v822q0 16 -11.5 27t-27.5 11h-822q-16 0 -27 -11t-11 -27v-822zM1149 928q0 -16 11 -27.5t27 -11.5h822q16 0 27.5 11.5t11.5 27.5v822q0 16 -11.5 27.5t-27.5 11.5h-822q-16 0 -27 -11.5t-11 -27.5v-822z " />
<glyph unicode="&#xf006;" d="M88 -217q1 209 74.5 391.5t198.5 310t297 200.5t366 73q190 0 362 -74.5t297.5 -202.5t200 -310t76.5 -388q0 -16 -11.5 -27.5t-27.5 -11.5h-1794q-16 0 -27.5 11.5t-11.5 27.5zM559 1327q0 -126 62 -233.5t169.5 -170t233.5 -62.5t233.5 62.5t169.5 170t62 233.5 q0 95 -37 181t-99 148t-148 99t-181 37t-181 -37t-148 -99t-99 -148t-37 -181z" />
<glyph unicode="&#xf007;" d="M0 613v310q0 14 10 24.5t25 10.5h185q30 125 95 234l-109 110q-10 9 -10 22.5t10 22.5l204 204q9 10 22 10t23 -10l102 -102q127 87 277 123v182q0 14 10.5 24.5t24.5 10.5h310q14 0 24.5 -10.5t10.5 -24.5v-182q150 -36 277 -123l102 102q10 10 23 10t22 -10l204 -204 q10 -9 10 -22.5t-10 -22.5l-109 -110q65 -109 95 -234h185q15 0 25 -10.5t10 -24.5v-310q0 -14 -10 -24.5t-25 -10.5h-185q-30 -125 -95 -234l109 -110q10 -9 10 -22.5t-10 -22.5l-204 -204q-9 -10 -22 -10t-23 10l-102 102q-126 -88 -279 -123v-182q0 -15 -10.5 -25 t-24.5 -10h-311q-14 0 -24 10t-10 25v183q-149 34 -275 122l-102 -102q-10 -10 -23 -10t-22 10l-204 204q-10 9 -10 22.5t10 22.5l109 110q-65 109 -95 234h-185q-15 0 -25 10.5t-10 24.5zM518 768q0 -103 40 -197t107.5 -161.5t161.5 -107.5t197 -40t197 40t161.5 107.5 t107.5 161.5t40 197t-40 197t-107.5 161.5t-161.5 107.5t-197 40t-197 -40t-161.5 -107.5t-107.5 -161.5t-40 -197z" />
<glyph unicode="&#xf008;" d="M0 995l4 4t4 5q207 207 475.5 314.5t540.5 107.5t540.5 -107.5t475.5 -314.5q1 -2 3.5 -5t4.5 -4l-142 -141q-171 175 -399 272.5t-483 97.5t-483 -97.5t-399 -272.5zM292 704l8 8q144 145 331.5 222.5t392.5 77.5t392.5 -77.5t331.5 -222.5q6 -6 8 -9l-147 -147 q-113 117 -264.5 182t-320.5 65t-320.5 -65t-264.5 -182zM590 405q84 88 196 137t238 49t238.5 -49t195.5 -137l-138 -137q-57 60 -133.5 94t-162.5 34t-162.5 -34t-133.5 -94zM878 117q60 67 146 67t146 -67l-146 -146z" />
<glyph unicode="&#xf009;" d="M38 115v-332q0 -16 11.5 -27.5t27.5 -11.5h332q16 0 27.5 11.5t11.5 27.5v332q0 16 -11.5 27.5t-27.5 11.5h-332q-16 0 -27.5 -11.5t-11.5 -27.5zM38 602q0 -16 11.5 -27t27.5 -11h332q16 0 27.5 11t11.5 27v332q0 16 -11.5 27t-27.5 11h-332q-16 0 -27.5 -11t-11.5 -27 v-332zM38 1421q0 -16 11.5 -27.5t27.5 -11.5h332q16 0 27.5 11.5t11.5 27.5v332q0 16 -11.5 27.5t-27.5 11.5h-332q-16 0 -27.5 -11.5t-11.5 -27.5v-332zM648 115v-332q0 -16 11.5 -27.5t27.5 -11.5h1284q16 0 27.5 11.5t11.5 27.5v332q0 16 -11.5 27.5t-27.5 11.5h-1284 q-16 0 -27.5 -11.5t-11.5 -27.5zM648 602q0 -16 11.5 -27t27.5 -11h1284q16 0 27.5 11t11.5 27v332q0 16 -11.5 27t-27.5 11h-1284q-16 0 -27.5 -11t-11.5 -27v-332zM648 1421q0 -16 11.5 -27.5t27.5 -11.5h1284q16 0 27.5 11.5t11.5 27.5v332q0 16 -11.5 27.5t-27.5 11.5 h-1284q-16 0 -27.5 -11.5t-11.5 -27.5v-332z" />
<glyph unicode="&#xf020;" d="M33 647l310 252l675 -558l679 554l318 -267l-979 -798zM33 1454l310 252l675 -558l679 553l318 -266l-979 -798z" />
<glyph unicode="&#xf021;" d="M33 101l979 798l1003 -817l-310 -252l-675 558l-679 -553zM33 908l979 798l1003 -817l-310 -252l-675 558l-679 -554z" />
<glyph unicode="&#xf022;" d="M0 1126l320 321l698 -708l701 702l329 -339l-1012 -1013z" />
<glyph unicode="&#xf023;" d="M0 434l1012 1013l1036 -1037l-320 -321l-698 708l-701 -702z" />
<glyph unicode="&#xf024;" d="M345 756l1037 1036l321 -320l-708 -698l702 -701l-339 -329z" />
<glyph unicode="&#xf025;" d="M345 64l708 698l-702 701l339 329l1013 -1012l-1037 -1036z" />
<glyph unicode="&#xf026;" d="M64 815.5q-49 185.5 0 371t187 324.5q139 138 324.5 187t371 0t324.5 -187q124 -124 176.5 -288.5t25.5 -332.5t-127 -307l660 -661q9 -9 9 -21t-9 -21l-47 -47l-43 -44l-1 -1l-33 -32q-9 -9 -21.5 -9t-20.5 9l-660 660q-140 -100 -308 -126.5t-332.5 26t-288.5 176.5 q-138 138 -187 323.5zM245.5 864q36.5 -137 138.5 -240q102 -102 239.5 -138.5t275 0t239.5 138.5q102 103 138.5 240t0 274.5t-138.5 239.5t-239.5 138.5t-275 0t-239.5 -138.5t-138.5 -239.5t0 -274.5z" />
<glyph unicode="&#xf027;" d="M0 768q0 208 81 397.5t218 327t327 218.5t398 81t398 -81t327 -218.5t218 -327t81 -397.5t-81 -397.5t-218 -327t-327 -218.5t-398 -81t-398 81t-327 218.5t-218 327t-81 397.5zM189 773q0 -227 112 -419t304 -304t419 -112t419 112t304 304t112 419t-112 419t-304 304 t-419 112t-419 -112t-304 -304t-112 -419zM530 706v124q0 14 10 23.5t23 8.5h366v366q0 14 9.5 23.5t23.5 9.5h124q14 0 23.5 -9.5t9.5 -23.5v-366h380q14 1 23.5 -8.5t9.5 -23.5v-124q0 -14 -10 -23.5t-23 -9.5h-380v-381q0 -13 -9.5 -22.5t-23.5 -9.5h-124 q-14 0 -23.5 9.5t-9.5 22.5v381h-366q-14 1 -23.5 10.5t-9.5 22.5z" />
<glyph unicode="&#xf028;" d="M0 768q0 208 81 397.5t218 327t327 218.5t398 81t398 -81t327 -218.5t218 -327t81 -397.5t-81 -397.5t-218 -327t-327 -218.5t-398 -81t-398 81t-327 218.5t-218 327t-81 397.5zM189 773q0 -227 112 -419t304 -304t419 -112t419 112t304 304t112 419t-112 419t-304 304 t-419 112t-419 -112t-304 -304t-112 -419zM530 706v124q0 14 10 23.5t23 8.5h936q14 1 23.5 -8.5t9.5 -23.5v-124q0 -14 -10 -23.5t-23 -9.5h-936q-14 1 -23.5 10.5t-9.5 22.5z" />
<glyph unicode="&#xf029;" d="M114 654q0 246 121.5 455t330.5 331t455 123v229l518 -380l-518 -346v275q-132 -1 -252.5 -55.5t-207.5 -146.5t-138.5 -219t-51.5 -266q0 -187 87.5 -345.5t237.5 -250.5t328 -92t328 92t237.5 250.5t87.5 345.5h257q0 -185 -72 -353.5t-194 -290.5t-290.5 -194 t-353.5 -72t-353.5 72t-290.5 194t-194 290.5t-72 353.5z" />
<glyph unicode="&#xf02a;" d="M0 160v1216q0 172 122 294t294 122h1216q172 0 294 -122t122 -294v-1216q0 -172 -122 -294t-294 -122h-1216q-172 0 -294 122t-122 294zM469 626h443v-442h254v442h442v254h-442v443h-254v-443h-443v-254z" />
<glyph unicode="&#xf02b;" d="M0 160v1216q0 172 122 294t294 122h1216q172 0 294 -122t122 -294v-1216q0 -172 -122 -294t-294 -122h-1216q-172 0 -294 122t-122 294zM469 626h1139v254h-1139v-254z" />
<glyph unicode="&#xf040;" d="M0 -128v1782q0 33 24.5 57.5t58.5 24.5h314q34 0 58.5 -24.5t24.5 -57.5v-1782q0 -35 -24.5 -59.5t-58.5 -24.5h-314q-34 0 -58.5 24.5t-24.5 59.5zM723.5 771q1.5 33 24.5 56l927 927q25 25 59.5 25t58.5 -25l222 -222q25 -25 25 -59.5t-25 -58.5l-646 -646l647 -646 q24 -24 24 -58.5t-24 -59.5l-223 -222q-24 -25 -58.5 -25t-58.5 25l-928 927q-26 29 -24.5 62z" />
<glyph unicode="&#xf041;" d="M0 772q0 -25 24 -42l1051 -774q24 -17 41 -8.5t17 37.5v602l858 -631q23 -17 40 -8.5t17 37.5v1566q0 29 -17 37.5t-40 -8.5l-858 -625v596q0 29 -17 37.5t-41 -8.5l-1051 -766q-24 -17 -24 -42z" />
<glyph unicode="&#xf042;" d="M0 -158q0 -40 29 -69t69 -29h1852q40 0 69 29t29 69v1851q0 41 -29 70t-69 29h-1852q-40 0 -69 -29t-29 -70v-1851z" />
<glyph unicode="&#xf043;" d="M230 -158q0 -40 29 -69t69 -29h401q41 0 69.5 29t28.5 69v1852q0 40 -28.5 69t-69.5 29h-401q-40 0 -69 -29t-29 -69v-1852zM1221 -158q0 -40 28.5 -69t69.5 -29h401q40 0 69 29t29 69v1852q0 40 -29 69t-69 29h-401q-41 0 -69.5 -29t-28.5 -69v-1852z" />
<glyph unicode="&#xf044;" d="M320 -206v1947q0 37 21 47.5t50 -10.5l1308 -953q29 -22 29 -52.5t-29 -52.5l-1308 -962q-29 -22 -50 -11t-21 47z" />
<glyph unicode="&#xf045;" d="M0 -15q0 -29 17 -37.5t40 8.5l858 625v-596q0 -29 17 -37.5t41 8.5l1051 766q24 17 24 42t-24 42l-1051 774q-24 17 -41 8.5t-17 -37.5v-602l-858 631q-23 17 -40 8.5t-17 -37.5v-1566z" />
<glyph unicode="&#xf046;" d="M8 63.5q0 34.5 24 58.5l647 646l-647 646q-24 24 -24 58.5t24 59.5l222 222q25 25 59.5 25t58.5 -25l928 -927q26 -31 23.5 -64t-23.5 -54l-927 -927q-25 -25 -59.5 -25t-58.5 25l-223 222q-24 25 -24 59.5zM1567 -118v1782q0 34 24.5 59t59.5 25h314q34 0 58.5 -24.5 t24.5 -59.5v-1782q0 -33 -24.5 -57.5t-58.5 -24.5h-314q-34 0 -59 24.5t-25 57.5z" />
<glyph unicode="&#xf047;" d="M0 501v528h428l550 561q31 35 52.5 26.5t21.5 -54.5v-1588q0 -46 -22 -54.5t-54 25.5l-567 556h-409z" />
<glyph unicode="&#xf048;" d="M0 501v528h428l550 561q31 35 52.5 26.5t21.5 -54.5v-1588q0 -46 -22 -54.5t-54 25.5l-567 556h-409zM1232 1089q4 -43 37 -71q55 -46 86.5 -111t31.5 -140q0 -149 -114 -247q-33 -28 -36.5 -71t24.5 -76q32 -37 80 -37q39 0 67 25q88 75 137.5 180.5t49.5 225.5 q0 122 -51 229.5t-141 182.5q-34 28 -77 24t-70 -38q-28 -33 -24 -76zM1571.5 1352q-0.5 -43 29.5 -74q102 -105 159 -241t57 -288t-56 -288t-158 -240q-31 -32 -30.5 -75t31.5 -73q30 -29 73 -29q42 -2 75 31q129 133 201.5 307t72.5 367t-72.5 367.5t-203.5 307.5 q-30 31 -73 31.5t-74 -29.5q-31 -31 -31.5 -74z" />
<glyph unicode="&#xf049;" d="M137 -118v1769q0 64 53 97t116 -1q65 -38 1530 -884q56 -32 56 -95t-56 -96q-83 -49 -775.5 -449t-758.5 -436q-38 -18 -74.5 -13.5t-63.5 34.5t-27 74zM440 590q0 -55 17 -99q20 -46 55 -81q38 -37 89 -55q54 -21 122 -21q56 0 106 14q49 14 83 36q38 24 63 53 q26 29 49 64h2q1 -32 6 -64t16 -51q11 -20 34 -35q22 -13 57 -13q30 0 55 5q25 6 40 13q-13 40 -19 78q-8 38 -12 72q-5 42 -5 79q-1 27 -1 95v183q0 79 -16 148q-18 66 -59 108q-41 46 -108 68q-67 23 -169 23q-101 0 -191 -17q-87 -17 -143 -36q-1 -6 -1 -16v-17 q0 -47 17 -77q18 -32 54 -32q23 0 44 7q4 1 23.5 6t31.5 8q49 10 69 13q36 7 89 7q99 0 138 -36t39 -122v-43q-118 20 -207 20q-94 0 -165 -20q-70 -23 -115 -59q-44 -37 -67 -90q-21 -49 -21 -116zM628 604q0 69 57 108q58 38 173 38q63 0 159 -16v-74q-37 -74 -97 -122 q-62 -49 -147 -49q-64 0 -105 29q-40 32 -40 86z" />
<glyph unicode="&#xf04a;" d="M0 768q0 208 81 397.5t218 327t327 218.5t398 81t398 -81t327 -218.5t218 -327t81 -397.5t-81 -397.5t-218 -327t-327 -218.5t-398 -81t-398 81t-327 218.5t-218 327t-81 397.5zM766 286q0 -17 10 -22t24 5l637 469q14 10 14 25t-14 25l-637 465q-14 10 -24 5t-10 -23 v-949z" />
<glyph unicode="&#xf050;" d="M146 768q0 -85 60 -144.5t144 -59.5q85 0 145 59.5t60 144.5t-60 144.5t-145 59.5q-84 0 -144 -59.5t-60 -144.5zM820 768q0 -85 59.5 -144.5t144.5 -59.5t144.5 59.5t59.5 144.5t-59.5 144.5t-144.5 59.5t-144.5 -59.5t-59.5 -144.5zM1493 768q0 -85 60 -144.5 t145 -59.5q84 0 144 59.5t60 144.5t-60 144.5t-144 59.5q-85 0 -145 -59.5t-60 -144.5z" />
<glyph unicode="&#xf051;" d="M820 768q0 -85 59.5 -144.5t144.5 -59.5t144.5 59.5t59.5 144.5t-59.5 144.5t-144.5 59.5t-144.5 -59.5t-59.5 -144.5z" />
<glyph unicode="&#xf052;" d="M0 -81v1293q0 37 26 63t63 26h696q-139 -67 -248 -182h-352v-1108h1476v433l183 163v-688q0 -37 -26 -62.5t-62 -25.5h-1667q-37 0 -63 25.5t-26 62.5zM377 406v6l8 43l3 15q12 57 29 115t53 141t82 155t118.5 147.5t159 129.5t208 89t260.5 37v404q0 14 7 17t17 -7 l712 -658q10 -9 10 -21.5t-10 -22.5l-712 -644q-10 -9 -17 -5.5t-7 16.5v432q-46 1 -99.5 -1t-159 -20t-201.5 -50.5t-209 -102.5t-199 -166q-2 -2 -5.5 -6.5t-5.5 -6.5l-24 -30q-15 -19 -18 -6z" />
<glyph unicode="&#xf053;" d="M0 866v124q0 14 10 23.5t23 9.5h601l-594 594q-10 10 -10 23t10 23l88 88q10 10 23 10t23 -10l594 -594v601q0 14 9.5 23.5t22.5 9.5h124q14 0 23.5 -9.5t9.5 -23.5v-892q0 -14 -9.5 -23.5t-23.5 -9.5h-124h-767q-13 0 -23 9.5t-10 23.5zM1091 -222v892q0 13 9.5 22.5 t23.5 9.5h124h767q14 0 23.5 -9.5t9.5 -22.5v-124q0 -14 -10 -23.5t-23 -9.5h-601l594 -594q10 -10 10 -23t-10 -23l-88 -88q-10 -9 -23 -9t-23 9l-594 594v-601q0 -14 -9.5 -23.5t-22.5 -9.5h-124q-14 0 -23.5 9.5t-9.5 23.5z" />
<glyph unicode="&#xf054;" d="M0 866v892q0 14 10 23.5t23 9.5h124h767q14 0 23.5 -9.5t9.5 -23.5v-124q0 -14 -9.5 -23.5t-23.5 -9.5h-601l594 -594q10 -9 10 -22.5t-10 -23.5l-88 -88q-9 -9 -22.5 -9t-23.5 9l-593 594v-601q0 -14 -10 -23.5t-23 -9.5h-124q-13 0 -23 9.5t-10 23.5zM1091 -98 q0 14 9.5 23.5t23.5 9.5h601l-594 594q-10 9 -10 22.5t10 23.5l88 88q9 9 22.5 9t23.5 -9l593 -594v601q0 13 9.5 22.5t23.5 9.5h124q14 0 23.5 -9.5t9.5 -22.5v-892q0 -14 -10 -23.5t-23 -9.5h-124h-767q-14 0 -23.5 9.5t-9.5 23.5v124z" />
<glyph unicode="&#xf055;" d="M392 768q0 -129 50 -246t134.5 -201.5t201.5 -134.5t246 -50t246 50t201.5 134.5t134.5 201.5t50 246t-50 246t-134.5 201.5t-201.5 134.5t-246 50t-246 -50t-201.5 -134.5t-134.5 -201.5t-50 -246z" />
<glyph unicode="&#xf056;" d="M0 768q0 208 81 398t218.5 327t327 218t397.5 81q209 0 398.5 -81t326.5 -218t218 -326.5t81 -398.5t-81 -398.5t-218 -326.5t-326.5 -218t-398.5 -81q-208 0 -397.5 81t-327 218t-218.5 327t-81 398zM199 768q0 -168 65.5 -321t176 -263t263 -175.5t320.5 -65.5 q224 0 414 110.5t300.5 300.5t110.5 414t-110.5 414t-300.5 300.5t-414 110.5q-168 0 -320.5 -65.5t-263 -175.5t-176 -263t-65.5 -321z" />
<glyph unicode="&#xf057;" d="M0 768q0 208 81 398t218.5 327t327 218t397.5 81q209 0 398.5 -81t326.5 -218t218 -326.5t81 -398.5t-81 -398.5t-218 -326.5t-326.5 -218t-398.5 -81q-208 0 -397.5 81t-327 218t-218.5 327t-81 398zM199 768q0 -168 65.5 -321t176 -263t263 -175.5t320.5 -65.5 q224 0 414 110.5t300.5 300.5t110.5 414t-110.5 414t-300.5 300.5t-414 110.5q-168 0 -320.5 -65.5t-263 -175.5t-176 -263t-65.5 -321zM392 768q0 -129 50 -246t134.5 -201.5t201.5 -134.5t246 -50t246 50t201.5 134.5t134.5 201.5t50 246t-50 246t-134.5 201.5 t-201.5 134.5t-246 50t-246 -50t-201.5 -134.5t-134.5 -201.5t-50 -246z" />
<glyph unicode="&#xf090;" d="M0 739q0 155 81 296.5t218 243.5t326.5 162.5t398.5 60.5t398.5 -60.5t326.5 -162.5t218 -243.5t81 -296.5t-81 -296.5t-218 -243.5t-326.5 -162.5t-398.5 -60.5q-177 0 -341 43l-266 -267q-10 -9 -17 -6t-7 16v376q-183 107 -288 264t-105 337z" />
<glyph unicode="&#xf091;" d="M56 -203l47 168l601 603l-268 268l13 10q48 48 114.5 80.5t152.5 32.5t156 -52l525 462q-14 18 -31 42q-49 73 -43 172q4 81 42 103q29 17 68 -19l522 -523q71 -62 28 -98q-39 -33 -133 -21q-87 11 -154 56q-3 2 -18 13.5t-24 18.5l-463 -526q37 -62 48 -129.5 t-14.5 -146.5t-93.5 -147q-9 -9 -11 -12l-272 271l-601 -602l-168 -46q-13 -4 -20 2.5t-3 19.5z" />
<glyph unicode="&#xf092;" d="M106 661q0 231 107 431t292.5 327t410.5 153q0 28 7 56q-24 9 -40 29.5t-16 49.5q0 38 26 61.5t59 23.5q128 0 146 -0.5t33 -7.5q50 -23 50 -77q0 -30 -17.5 -51t-42.5 -29q8 -26 8 -55q226 -26 412 -152.5t293.5 -327t107.5 -431.5q0 -186 -72.5 -356t-195.5 -293 t-293 -196t-357 -73t-357 73t-293 196t-195.5 293t-72.5 356zM285 661q0 -154 63.5 -293t166.5 -236t237 -154t272 -57q139 0 275 63t237.5 164.5t164 237.5t62.5 275q0 191 -103 362t-274 274t-362 103q-144 0 -279 -57t-236.5 -154t-162.5 -235.5t-61 -292.5zM653 1158 q6 23 26 34q20 12 43 6t34 -26l293 -506q11 -20 5 -42.5t-26 -34.5t-43 -5.5t-34 26.5l-292 505q-12 20 -6 43z" />
<glyph unicode="&#xf093;" d="M106 662q0 125 33 244t92 219.5t144 185.5t185.5 144t219.5 92t244 33t244 -33t219.5 -92t185.5 -144t144 -185.5t92 -219.5t33 -244t-33 -244t-92 -219.5t-144 -185.5t-185.5 -144t-219.5 -92t-244 -33t-244 33t-219.5 92t-185.5 144t-144 185.5t-92 219.5t-33 244z M275 666q0 -152 59.5 -290.5t160 -238.5t239 -159.5t290.5 -59.5t290.5 59.5t239 159.5t160 238.5t59.5 290.5t-59.5 291t-160 239t-239 159.5t-290.5 59.5t-290.5 -59.5t-239 -159.5t-160 -239t-59.5 -291zM944 655v622q0 12 8.5 20.5t20.5 8.5h111q12 0 21 -8.5t9 -20.5 v-546l319 -200q10 -6 13 -18t-4 -22l-59 -94q-6 -10 -18 -13t-22 4l-381 239l-1 1q-17 8 -17 27z" />
<glyph unicode="&#xf0d0;" d="M5.5 999q2.5 8 16.5 10l681 100l306 617q6 12 15 12t15 -12l305 -618l682 -99q14 -2 16.5 -10t-7.5 -18l-494 -481l117 -681q2 -13 -5 -18t-19 1l-609 322l-611 -322q-12 -6 -19 -1t-5 18l116 682l-493 480q-10 10 -7.5 18z" />
<glyph unicode="&#xf0d1;" d="M5.5 999q2.5 8 16.5 10l681 100l306 617q6 12 15 12t15 -12l305 -618l682 -99q14 -2 16.5 -10t-7.5 -18l-494 -481l117 -681q2 -13 -5 -18t-19 1l-609 322l-611 -322q-12 -6 -19 -1t-5 18l116 682l-493 480q-10 10 -7.5 18zM251 918l377 -367l-88 -520q-2 -10 3 -14t15 1 l467 244l465 -244q10 -5 15 -1t3 14l-89 519l378 368q16 16 -7 21l-522 76l-233 472q-5 9 -11 9t-11 -9l-234 -472l-521 -76q-23 -5 -7 -21z" />
<glyph unicode="&#xf0d2;" d="M0 761v370q0 41 29.5 70.5t70.5 29.5h413q-112 56 -165 140q-41 64 -41 138q0 112 89 196q86 81 197 81q109 0 209 -67q86 -57 156 -157q40 -57 65 -112q2 3 4.5 7.5t3.5 6.5q84 168 214 255q100 67 208 67q109 0 190 -70q85 -75 85 -182q0 -68 -39 -132.5t-113 -117.5 q-42 -31 -88 -53h460q41 0 70.5 -29.5t29.5 -70.5v-370h-965v470h-118v-470h-965zM181 -250v872h784v-872h-784zM451 1509q0 -31 19 -61q24 -38 76 -71q126 -81 391 -108q-17 67 -50 131q-68 134 -165 199q-64 43 -130 43q-53 0 -97 -42q-44 -41 -44 -91zM1083 -250v872h784 v-872h-784zM1107 1258q259 52 385 143q91 66 91 133q0 42 -36 74q-39 34 -93 34h-1q-64 0 -128 -43t-118 -120q-68 -95 -100 -221z" />
<glyph unicode="&#xf0d3;" d="M0 293q1 146 67 263t177 181t244 64q132 0 249 -69q-116 -82 -195 -200.5t-109 -258.5h-413q-8 0 -14 6t-6 14zM245 1097q0 -100 71.5 -171t171.5 -71t171 71t71 171t-71 171.5t-171 71.5t-171.5 -71t-71.5 -172zM546 -22q1 168 60 314t159.5 248.5t238.5 161t293 58.5 q153 0 290.5 -59.5t238.5 -162.5t161 -249t61 -311q0 -13 -9 -22t-22 -9h-1439q-13 0 -22.5 9t-9.5 22zM924 1216q0 -154 109 -263.5t264 -109.5t264 109.5t109 263.5t-109 263.5t-264 109.5t-264 -109.5t-109 -263.5z" />
<glyph unicode="&#xf0d4;" d="M35 1423v225h427v144h1124v-144h427v-225q0 -58 -11 -114t-44 -121.5t-85 -116.5t-142 -91.5t-206 -53.5q-73 -140 -207 -235.5t-287 -99.5h-14q-153 4 -287 99.5t-207 235.5q-116 13 -206 53.5t-142 91.5t-85 116.5t-44 121.5t-11 114zM187 1354q0 -32 8.5 -59t18.5 -47 t34.5 -41.5t41 -33.5t54.5 -31t57.5 -27.5t66.5 -28.5q-6 32 -6 63v360h-275v-155zM513 -92q7 0 18.5 1t44.5 7t63.5 15t67.5 26.5t63.5 40t45 58t18.5 78.5v316q108 55 186 57h8q35 -1 81.5 -15t75.5 -28l29 -14v-316q0 -59 33 -103.5t80 -66.5t94.5 -36t80.5 -17l33 -3 v-164h-1022v164zM1580 1086q47 20 66.5 28.5t57.5 27.5t54.5 31t41 33.5t34.5 41.5t18.5 47t8.5 59v155h-275v-360q0 -21 -6 -63z" />
<glyph unicode="&#xf0f0;" d="M8 1096.5q0 35.5 25 61.5l149 148q61 -61 147 -61t147 61q61 62 61 148t-61 147l157 157q25 26 61 26t61 -26l1260 -1258q25 -25 25 -60.5t-25 -61.5l-157 -157q-62 61 -148 61t-147 -61t-60.5 -147t61.5 -147l-149 -149q-25 -26 -61 -26t-61 26l-1260 1258 q-25 25 -25 60.5zM477 857q0 -36 25 -61l548 -546q25 -26 60.5 -26t61.5 26l369 369q25 25 25 61t-25 61l-548 547q-25 25 -61 25t-61 -25l-369 -370q-25 -25 -25 -61z" />
<glyph unicode="&#xf0f1;" d="M0 -86v1638h212v-216q0 -14 10.5 -24.5t24.5 -10.5h142q14 0 24 10.5t10 24.5v216h1215v-216q0 -14 10.5 -24.5t24.5 -10.5h142q14 0 24 10.5t10 24.5v216h199v-1638h-199v245q0 14 -10 24t-24 10h-142q-14 0 -24.5 -10t-10.5 -24v-245h-1215v245q0 14 -10 24t-24 10 h-142q-14 0 -24.5 -10t-10.5 -24v-245h-212zM212 589q0 -14 10.5 -24t24.5 -10h142q14 0 24 10t10 24v317q0 14 -10 24t-24 10h-142q-14 0 -24.5 -10t-10.5 -24v-317zM1638 589q0 -14 10.5 -24t24.5 -10h142q14 0 24 10t10 24v317q0 14 -10 24t-24 10h-142q-14 0 -24.5 -10 t-10.5 -24v-317z" />
<glyph unicode="&#xf0f2;" d="M0 58q0 -35 25.5 -61t61.5 -26h1874q36 0 61.5 26t25.5 61v1128q0 36 -25.5 61.5t-61.5 25.5h-1240v135q0 35 -26 61t-62 26h-546q-36 0 -61.5 -26t-25.5 -61v-1350zM657 622q0 152 107.5 260t259.5 108t260 -108t108 -260t-108 -259.5t-260 -107.5t-259.5 107.5 t-107.5 259.5zM1664 1024q0 49 35 83.5t84 34.5t83.5 -34.5t34.5 -83.5t-34.5 -83.5t-83.5 -34.5t-84 34.5t-35 83.5z" />
<glyph unicode="&#xf0f3;" d="M0 59q0 -35 25.5 -61t61.5 -26h1874q36 0 61.5 26t25.5 61v1221q0 36 -25.5 61.5t-61.5 25.5h-169v346q0 13 -9 22t-22 9h-86q-13 0 -22 -9t-9 -22v-346h-1557q-36 0 -61.5 -25.5t-25.5 -61.5v-1221zM169 993v197h1710v-197h-1710zM176 488q0 135 95 230.5t230 95.5 t230.5 -95.5t95.5 -230.5t-95.5 -230.5t-230.5 -95.5t-230 95.5t-95 230.5z" />
<glyph unicode="&#xf0f4;" d="M0 80v1376q0 36 25.5 61.5t62.5 25.5h1872q37 0 62.5 -25.5t25.5 -61.5v-1376q0 -36 -25.5 -61.5t-62.5 -25.5h-1872q-37 0 -62.5 25.5t-25.5 61.5zM190 301h1668v1049h-1668v-1049zM814 138q0 -13 9 -22.5t22 -9.5h358q13 0 22 9.5t9 22.5v32q0 13 -9 22t-22 9h-358 q-13 0 -22 -9t-9 -22v-32z" />
<glyph unicode="&#xf110;" d="M251 -209v948q0 20 14 34t33 14h186v527q0 131 52 239.5t151 173.5t226 65h247q127 0 226 -65t151 -173.5t52 -239.5v-527h161q19 0 33 -14t14 -34v-948q0 -19 -13.5 -33t-33.5 -14h-1452q-20 0 -33.5 14t-13.5 33zM725 787h623v504q0 110 -78.5 188.5t-188.5 78.5h-89 q-111 0 -189 -78.5t-78 -188.5v-504z" />
<glyph unicode="&#xf111;" d="M6 -186q14 -23 51 -23h1935q37 0 50.5 23t-4.5 55l-998 1844q-17 32 -42 32t-41 -33l-948 -1842q-17 -33 -3 -56zM879 130q0 50 35 86t85 36q56 0 89 -39t33 -83q0 -49 -36 -83.5t-86 -34.5t-85 34.5t-35 83.5zM879 1067q-6 51 24 84t108 33q33 0 65 -3t53 -9l-49 -728 q-3 -25 -21 -43t-58 -18q-27 0 -74 13z" />
<glyph unicode="&#xf112;" d="M350 1213q24 260 190 420q165 159 507 159q265 0 429 -111q222 -150 222 -400q0 -104 -57 -200q-60 -98 -235 -236q-124 -98 -155 -156q-32 -58 -32 -154h-464v46q0 119 27 192q28 75 80 135q53 61 238 214q99 81 99 148t-40 104q-38 37 -120 37q-86 0 -143 -57 q-56 -56 -73 -200zM726 22q0 115 81.5 196t196.5 81t196.5 -81t81.5 -196t-81.5 -196.5t-196.5 -81.5t-196.5 81.5t-81.5 196.5z" />
<glyph unicode="&#xf113;" d="M519 770q4 -7 17 -18.5t15 -11.5q6 -1 13 1t13 5t12.5 8t11.5 9.5t11 11t9 10.5t7 9t5 6q14 17 37.5 47.5t34 43t31 32.5t45.5 39q61 51 102 40q32 -10 22 -60q-114 -294 -124 -324q-15 -36 -53.5 -127t-56.5 -137t-43.5 -120.5t-42.5 -142.5q-37 -156 -6 -226 q19 -49 67 -71.5t107 -18t115.5 20t104.5 39.5q102 45 183 109.5t163 156.5q44 37 68 90q1 1 6 9t8.5 13.5t6.5 14t3 15.5q0 16 -11 31t-23 15t-26.5 -12t-30.5 -31t-21 -23q-11 -12 -44.5 -49t-55 -59.5t-44.5 -43.5q-2 -1 -9 -7t-12 -9.5t-13 -9.5t-14.5 -9t-14.5 -5.5 t-16 -2.5t-15 3q-17 7 -19.5 34.5t3.5 52t12 37.5q29 82 40 122q99 271 186 493q3 10 20.5 57.5t24 71t13 65.5t2.5 80q-1 86 -63.5 127.5t-162.5 36.5q-113 -6 -212 -54q-29 -13 -57 -30.5t-59.5 -39t-45.5 -30.5q-51 -47 -71.5 -66.5t-54 -56t-58.5 -73.5q-53 -53 -40 -88 zM1061 1522q0 -101 66.5 -159t175.5 -43q56 6 105.5 38.5t78 80.5t35 106.5t-22.5 116.5q-22 49 -78 79.5t-128 26.5q-101 -13 -166 -78q-26 -28 -46 -75t-20 -93z" />
<glyph unicode="&#xf114;" d="M7 460l313 327l370 -363l986 1357l365 -268l-1287 -1757l-10 -1z" />
<glyph unicode="&#xf115;" d="M6 55q0 22 16 38l674 675l-674 675q-16 16 -16 38t16 38l252 252q16 16 38 16t38 -16l674 -674l674 674q16 16 38 16t38 -16l252 -252q16 -16 16 -38t-16 -38l-674 -675l674 -675q16 -16 16 -38t-16 -38l-252 -253q-16 -15 -38 -15t-38 15l-674 675l-674 -675 q-16 -15 -38 -15t-38 15l-252 253q-16 16 -16 38z" />
<glyph unicode="&#xf116;" d="M0 768q0 209 81 398.5t218 326.5t326.5 218t398.5 81t398.5 -81t326.5 -218t218 -326.5t81 -398.5t-81 -398.5t-218 -326.5t-326.5 -218t-398.5 -81t-398.5 81t-326.5 218t-218 326.5t-81 398.5zM549 1356q0 -112 42 -174q43 -63 106 -63q35 0 67 8q32 9 66 21 q39 12 77 20q46 8 102 8q71 0 111 -29q40 -30 40 -77q0 -31 -26 -54t-64 -45q-71 -42 -85 -50q-44 -26 -85 -65q-40 -38 -65 -90q-25 -51 -25 -126q0 -24 3 -46q0 -3 3 -21t4 -29q34 -10 60 -15q34 -4 49 -4q57 0 83 24q27 22 33 50q10 43 35 74q24 28 59 48q29 19 76 37 q52 22 87 41q92 41 145 122q52 79 52 187q0 79 -31 147q-31 69 -93 118q-64 52 -154 80q-93 29 -212 29q-123 0 -249 -35q-125 -36 -211 -91zM748 228q0 -72 51 -123t123 -51q75 0 126 51q52 51 52 123q0 40 -13 70q-15 34 -39 56q-22 23 -57 39q-32 13 -69 13 q-36 0 -68 -13q-33 -16 -55 -39q-25 -27 -37 -56q-14 -33 -14 -70z" />
<glyph unicode="&#xf117;" d="M0 768q0 209 81 398.5t218 326.5t326.5 218t398.5 81t398.5 -81t326.5 -218t218 -326.5t81 -398.5t-81 -398.5t-218 -326.5t-326.5 -218t-398.5 -81t-398.5 81t-326.5 218t-218 326.5t-81 398.5zM861 1321q0 -67 48 -114q47 -46 115 -46t115 46q48 47 48 114 q0 69 -48 115q-48 48 -115 48t-115 -48q-48 -46 -48 -115zM865 66q23 -5 60 -9q43 -5 77 -5q105 0 142 26q37 25 37 77v871q-7 1 -27 4t-33 5q-43 5 -77 5q-105 0 -142 -26q-37 -25 -37 -77v-871z" />
<glyph unicode="&#xf118;" d="M0 768q0 209 81 398.5t218 326.5t326.5 218t398.5 81t398.5 -81t326.5 -218t218 -326.5t81 -398.5t-81 -398.5t-218 -326.5t-326.5 -218t-398.5 -81t-398.5 81t-326.5 218t-218 326.5t-81 398.5zM398 319q0 -41 28 -70l79 -79l1 -1q30 -28 69 -28q41 0 69 28l1 1l379 379 l378 -379l2 -1q28 -28 69 -28q39 0 69 28v1l80 79q29 31 29 70q0 41 -29 70l-379 379l379 378q29 31 29 70q0 40 -29 71l-79 78q-30 30 -70 30q-41 0 -71 -30l-378 -378l-378 378q-30 30 -71 30q-40 0 -70 -30l-79 -78q-28 -29 -28 -70.5t28 -70.5l379 -378l-379 -379 q-28 -29 -28 -70z" />
<glyph unicode="&#xf11b;" d="M0 768q0 209 81 398.5t218 326.5t326.5 218t398.5 81t398.5 -81t326.5 -218t218 -326.5t81 -398.5t-81 -398.5t-218 -326.5t-326.5 -218t-398.5 -81t-398.5 81t-326.5 218t-218 326.5t-81 398.5zM200 478q4 -1 9 -1.5t12 -1.5t12 -2q14 -1 41 -1q48 0 66 19q17 22 17 49 v153h192q24 0 41 14t17 54q0 14 -2 36q-4 25 -5 28h-243v140h210q26 0 43 16q18 15 18 59q0 26 -2 38q-1 15 -3 29h-337q-28 0 -44 -6q-16 -4 -26 -16q-10 -10 -13 -24q-3 -15 -3 -32v-551zM612 482q15 -6 39 -9t43 -3q26 0 53 8q26 9 36 43l28 94h212l33 -100 q11 -29 35 -37q20 -8 49 -8q22 0 45 3q19 2 40 10l-173 545q-5 19 -17 38q-10 16 -26 26t-38 14q-25 5 -55 5q-22 0 -49 -3q-31 -3 -53 -10zM845 737l73 238l73 -238h-146zM1238 793q0 -59 16 -110t48 -93q30 -42 74 -71t99 -43q-40 -11 -56 -39q-18 -30 -15 -64l313 -70 q12 -2 34 -6q14 -3 29 -1q77 6 89 118l-266 54q63 6 115 35q50 27 87 71q37 45 56 100q20 53 20 119q0 71 -23 128q-23 62 -65 104q-41 44 -101 70q-62 25 -132 25t-133 -25q-60 -26 -101 -70q-43 -44 -65 -104q-23 -57 -23 -128zM1401 792q0 40 12 75q12 33 34 59 q20 24 50 40q30 14 63 14q34 0 64 -15q28 -13 50 -40q22 -25 32 -59q12 -34 12 -75t-12 -75q-11 -33 -34 -61q-23 -26 -51 -41q-31 -14 -62 -14q-33 0 -63 14q-30 16 -50 40q-21 26 -33 61q-12 36 -12 77z" />
<glyph unicode="&#xf140;" d="M117 1359l70 16l82 54l37 5l27 42l-9 27l-25 19l-50 26l-43 -16l-39 46l16 43l42 23l48 -31l4 -49l58 -19q12 41 12 44l33 35l52 2l-10 47l-50 37l7 47l81 27l52 -28l12 -36l-9 -36l-37 -11l-13 -47l36 -38l58 3l32 28l17 25l29 6l39 -32l6 -34l-25 -40l-35 -6l-44 24 l-45 -28l11 -49l35 -38l42 -13l43 -28l3 -35l-22 -44l-56 -6l-36 45l5 36l-60 44l-60 -29v-51q34 -9 56 -17q10 -4 14.5 -22.5t4.5 -34.5v-16q38 -32 66 -55q12 -10 33.5 -22.5t37.5 -20.5l15 -7q34 57 62 76q12 8 35.5 10.5t41.5 1.5l17 -1l8 1q6 4 -8 22q-9 12 -13 29 t-4 28l1 11q56 -43 82 -49q12 -3 29.5 -5.5t29.5 -2.5l12 -1q1 0 3 1.5t5 7.5t0 15q-3 10 -26 26t-26 22q-2 8 -1 16.5t4 14.5l3 7q-12 -2 -29 -4t-63 -6t-62 1q-54 7 -67 51q-2 8 1 15t7 10l4 4q60 -21 89 -32q16 -4 37 -3t39 5l17 3q0 22 -5 41q-3 8 3 17.5t13 14.5l7 6 q15 25 27 46q7 12 41.5 15t44.5 8q12 6 16.5 19.5t2.5 23.5l-2 11l-8 66q26 34 35 57q4 11 21 13.5t32 -0.5l15 -3l42 -40h55l-6 39l56 13q14 -47 14 -51l-23 -24l75 -18l3.5 -3.5t8.5 -9.5t11 -14t10.5 -17.5t8 -20t1.5 -20t-6 -19.5q-12 -20 -30.5 -31.5t-31.5 -13.5 l-12 -1l-18 -33q0 -1 1 -2.5t2.5 -5.5t2.5 -8t2.5 -9t2 -9t0 -7.5t-2.5 -4.5q-4 -2 -7.5 -12t-5.5 -18l-2 -9l16 -57q-2 -71 -13 -80q-7 -3 -17 -3t-19 3l-10 2q7 -57 0 -77q-3 -8 -10.5 -13.5t-13.5 -6.5l-7 -1q10 -11 -4 -51q-6 -17 -20.5 -20t-25.5 3l-11 5l2 -66 q-1 -19 -19 -46t-20 -52q-2 -22 8.5 -45.5t30 -51.5t24.5 -37q2 -4 21 -62.5t54 -113.5q52 -81 118 -130.5t163 -56.5q54 -4 99.5 28t47.5 73q2 44 -34 74.5t-76 11.5q-25 -12 -37 -31.5t-12 -33.5l1 -13q-2 1 -5.5 2.5t-12.5 8.5t-16 16t-13.5 25.5t-7.5 35.5q-2 37 18 61 t41 30l21 6q-12 0 -32 2t-66.5 14.5t-75.5 32.5q-26 18 -41.5 63t-18.5 81l-2 36q57 -53 100 -80q26 -16 47.5 -25.5t31 -12t25.5 -4t22 -2.5q14 -2 44.5 -20.5t53.5 -35.5l24 -17q-10 11 -27 30.5t-60 74t-75 102.5t-57.5 104t-22.5 92q3 39 14.5 72.5t25.5 54.5t34 40.5 t35 29t32.5 20.5t23.5 15q16 12 19.5 49t-0.5 68l-5 31q8 -3 19.5 -9.5t34.5 -27t30 -40.5q6 -25 0.5 -47t-15.5 -37l-10 -15q41 7 87 16q40 9 64.5 26.5t23.5 48.5q-1 36 -23 64.5t-43 39.5l-21 11q4 1 10.5 2t26 1.5t37.5 -3t39.5 -15t37 -30.5t26 -53.5t10.5 -80.5 q0 -37 -22.5 -65.5t-54.5 -42t-64.5 -22t-55.5 -10.5l-22 -1q5 -3 12.5 -10t18.5 -30t7 -49q-4 -27 -22.5 -45t-34.5 -23l-16 -4q-1 5 -3 13t-9 28t-16 35.5t-23.5 28.5t-31.5 13q-50 0 -70 -16.5t-21 -73.5q-1 -21 27.5 -65.5t69 -99t81 -114t69 -126t28.5 -120.5 q0 -55 -15.5 -98.5t-37.5 -66.5t-44 -38t-37 -20l-16 -4q4 -4 9.5 -10.5t13.5 -26t5 -38.5q-3 -18 -24 -34.5t-40 -23.5l-20 -7q5 77 -17 103q-16 18 -59 31.5t-81 16.5q-20 2 -47.5 20.5t-44.5 36.5l-17 17q-2 -52 -11 -83q-8 -29 -4 -153v-1h26q33 -39 56 -69 q9 -13 37.5 -35.5t30.5 -36.5t-10 -50t-16 -60q-5 -24 -16.5 -39t-30 -30.5t-28.5 -28.5q-6 -8 -13 -14.5t-16 -11.5t-14.5 -8t-16.5 -6t-14.5 -4t-15.5 -3l-13 -3q-13 -2 -32 -19.5t-32 -33.5l-13 -16l-16 -44q-30 4 -30 11q0 5 -10.5 17.5t-23.5 21.5l-36 23l-35 -62 q-18 -4 -24 16l-11 75l-32 -5l-17 37q69 79 113 102q20 10 28.5 -0.5t7.5 -25.5l-1 -16l24 6q33 25 76 86q20 28 24 45.5t-3.5 40t-8.5 26.5q-2 15 -10 26t-15.5 15t-10.5 1q-2 -3 -16 -6t-27 -4l-12 -2q5 54 -6 88q-5 16 -18.5 34.5t-24.5 29.5l-11 11q-4 35 30 90 q15 27 14 42.5t-9 21.5l-8 6q-59 -75 -70 -84q-5 -4 -6.5 -23.5t-0.5 -37.5v-18l35 -49q-6 -25 -28 -37q-9 -4 -43 -43.5t-60 -54.5q-80 -48 -124 -39q-75 15 -118 38q-13 7 -26 15.5t-21 13.5t-11 6l-89 1q-57 -6 -66 11q-4 8 3.5 21t16.5 22l9 9l-62 22q-6 19 22 54 q12 16 24.5 22.5t18.5 5.5l6 -2q4 26 25 41q9 7 36 9.5t50 1.5l23 -1l10 -69l35 -17q13 -6 26 -5.5t20 3t27 14t29 15.5q20 10 43 15t36 5l13 -1l-2 14q-28 38 -31 38l-93 13q36 25 53 57q4 7 20 41.5t30 59t25 34.5q10 9 56.5 15t87.5 7l42 2q-64 70 -105 91 q-18 10 -34.5 28.5t-23.5 32.5l-7 13q-106 -81 -116 -83q-1 0 -44 -23t-71 -28l-127 -22l-55 -35l-17 -27q-29 -48 -33 -48q-1 0 -12 69q-7 47 -4 53q-15 -4 -36 3q-10 3 -16.5 6.5t-7.5 5.5l-1 2q-84 -12 -94 4q-4 8 11 30.5t31 41.5l17 18q-1 3 -2.5 8t-3.5 18.5t-2 25.5 t16.5 26.5t32.5 23.5l16 8l17.5 5t37.5 7.5t35 -3.5q12 -6 24.5 -18t19.5 -21l6 -10q66 28 75 34l67 52q-19 7 -40 11q-10 1 -23.5 13.5t-22.5 24.5l-8 12q-45 56 -70 78q-11 9 -23.5 26.5t-19.5 30.5l-7 13l10 -188l-66 67q-6 113 -8 118q-1 2 -5 3t-11.5 2.5t-15.5 6.5 q-8 8 -7.5 16t5.5 19l5 11q0 2 -4.5 2.5t-12 3t-13.5 7.5q-6 6 -7.5 16t0.5 17l1 7q-22 11 -28 19q-2 4 1 15t7 20l4 9l-38 5l-35 14l-55 -6z" />
<glyph unicode="&#xf1f0;" d="M0 125q50 -6 100 -6q293 0 522 180q-136 2 -244 83.5t-148 208.5q40 -8 79 -8q57 0 110 15q-145 29 -241 144.5t-96 266.5v6q89 -50 191 -53q-86 57 -136.5 149.5t-50.5 200.5q0 115 57 211q158 -194 383 -310t483 -129q-11 43 -11 96q0 174 123 297t297 123 q89 0 168.5 -35t138.5 -98q142 28 266 102q-48 -151 -184 -232q129 15 241 66q-84 -127 -210 -218q2 -36 2 -54q0 -168 -49 -337t-150 -323.5t-241 -273.5t-336 -190t-420 -71q-349 0 -644 189z" />
<glyph unicode="&#xf1f1;" d="M588 803v272h187v281q0 71 27 127.5t69 90.5t99 56.5t112 30.5t112 7q79 -1 145.5 -9t93.5 -15l27 -7l-43 -278q-4 1 -10.5 3.5t-26.5 8t-39.5 9t-46 5.5t-49 0t-46 -10.5t-39.5 -24t-26.5 -42t-10.5 -62.5v-171h297l-24 -272h-273v-935h-348v935h-187z" />
<glyph unicode="&#xf1f2;" d="M338 77q0 -138 97.5 -235.5t235.5 -97.5t235.5 97.5t97.5 235.5q0 66 -25 127l261 261q64 -29 137 -29q138 0 235.5 97.5t97.5 235.5t-97.5 235.5t-235.5 97.5q-69 0 -137 -29l-260 260q24 59 24 126q0 138 -97.5 235.5t-235.5 97.5t-235.5 -97.5t-97.5 -235.5 t97.5 -235.5t235.5 -97.5q79 0 147 34l255 -254q-29 -64 -29 -137t29 -137l-256 -255q-69 33 -146 33q-138 0 -235.5 -97.5t-97.5 -235.5z" />
<glyph unicode="&#xf200;" d="M69 -2h41l32 97h109l33 -97h43l-105 308h-48zM150 126l30 89q4 12 16 56h1q6 -28 16 -56l30 -89h-93zM347 149q0 -73 42.5 -114t109.5 -41q51 0 81 14l-8 32q-26 -13 -65 -13q-56 0 -87 33t-31 91q0 60 32.5 93.5t87.5 33.5q34 0 62 -13l10 32q-26 14 -74 14 q-71 0 -115.5 -44.5t-44.5 -117.5zM602 149q0 -73 42.5 -114t109.5 -41q53 0 81 14l-8 32q-26 -13 -65 -13q-56 0 -87 33t-31 91q0 60 32.5 93.5t87.5 33.5q34 0 62 -13l10 32q-26 14 -73 14q-72 0 -116.5 -44.5t-44.5 -117.5zM807 369h28l6 97q4 62 5 101q11 -43 27 -89 l36 -108h23l40 110q22 64 28 87h1q0 -35 4 -99l6 -99h28l-14 227h-37l-41 -110q-16 -47 -24 -77h-1q-10 42 -23 77l-39 110h-37zM857 149q0 -70 38.5 -113t100.5 -43q61 0 102 43t41 119q0 69 -38 112.5t-101 43.5q-62 0 -102.5 -44.5t-40.5 -117.5zM900 150q0 54 26 91.5 t72 37.5q47 0 73 -37.5t26 -87.5q0 -55 -26.5 -91.5t-72.5 -36.5q-45 0 -71.5 36.5t-26.5 87.5zM1063 596l72 -131v-96h30v96l76 131h-34l-32 -63q-17 -32 -23 -47h-1q-2 4 -22 47l-33 63h-33zM1190 125q0 -132 110 -132q53 0 85 33t32 101v179h-40v-182q0 -98 -75 -98 q-33 0 -52.5 24.5t-19.5 73.5v182h-40v-181zM1486 -2h37v132q0 68 -3 127h1q23 -47 58 -103l98 -156h40v308h-38v-129q0 -75 5 -126l-1 -1q-24 52 -55 100l-99 156h-43v-308zM1751 272h94v-274h40v274h94v34h-228v-34z" />
<glyph unicode="&#xf201;" d="M79 675l186 61q-28 107 -28 215q0 171 66.5 326.5t179.5 268.5t268.5 179.5t326.5 66.5t327 -66.5t268.5 -179.5t179 -268.5t66.5 -326.5q0 -39 -25 -60.5t-55 -21t-55 22.5t-25 59q0 139 -54 265t-145 217t-217 145t-265 54t-265 -54t-217 -145t-145 -217t-54 -265 q0 -83 20 -165l193 63l-154 -470zM420 -196q1 133 53.5 254t140.5 208t209.5 138.5t254.5 51.5t254 -51.5t209 -138.5t140.5 -208t53.5 -254h1v-33q0 -11 -8 -19t-19 -8h-1261q-12 0 -20 8t-8 19v33zM751 856q0 -135 95.5 -231t231.5 -96t231.5 96t95.5 231 q0 136 -95.5 231.5t-231.5 95.5t-231.5 -95.5t-95.5 -231.5z" />
<glyph unicode="&#xf202;" d="M0 121v340l1 -2q-1 6 -1 17v6v4q0 99 133.5 182.5t358.5 132.5q-148 -148 -223 -222q-38 -38 -53 -89q-4 -15 -6 -32q0 -2 -2 -8v-27q0 -1 1 -3t1 -4q3 -42 31 -87q13 -19 28 -33q24 -25 73 -74l20 -20q32 -30 68 -44q22 -8 50 -10q22 -2 45 0q21 1 50 12q34 14 63 43 q68 67 202 201q18 19 54.5 55.5l54.5 54.5l75 75l4 4l3 -3l25 -25l58 -58l198 -198l97 -97q14 -14 21 -20q40 -32 91 -43q5 -1 14 -2t13 -2l1 -1h2h13h2q2 1 3 1q38 5 69 19q32 14 57 39q14 14 30 29.5t35 35t29 29.5q40 40 54 98q2 14 2 21q1 22 0 44q-1 20 -10 46 q-17 42 -48 72q-21 22 -63.5 64t-63.5 64l-93 93q221 -50 351 -133t130 -180v-5v-5q0 -11 -1 -16v-339q0 -102 -135.5 -189t-370.5 -137.5t-514 -50.5t-515.5 50.5t-374 137.5t-137.5 189zM350 417q0 15 10 26l522 522l-522 522q-10 11 -10 25t10 25l96 96q10 11 25 11 t25 -11l522 -522l522 522q10 11 25 11t26 -11l96 -96q11 -11 11 -25t-11 -25l-522 -522l522 -522q11 -11 11 -26t-11 -25l-96 -96q-11 -10 -25.5 -10t-25.5 10l-522 522l-522 -522q-10 -10 -25 -10t-25 10l-96 96q-10 10 -10 25z" />
<glyph unicode="&#xf203;" d="M0 121v340l1 -2q-1 6 -1 17q0 156 271 257l22 8l731 -529l732 527q20 -7 29 -11q125 -51 194 -115.5t69 -136.5q0 -11 -1 -16v-339q0 -102 -135.5 -189t-370.5 -137.5t-514 -50.5t-515.5 50.5t-374 137.5t-137.5 189zM501 1032h318v632h413v-632h315l-521 -521z" />
<glyph unicode="&#xf204;" d="M0 113v344v-14v29v14q0 125 154.5 216.5t437.5 123.5v-515h874v515q281 -31 431.5 -122.5t150.5 -217.5v-14v-29v14v-344q0 -99 -136.5 -184t-373 -135t-514.5 -50t-514 50t-373 135t-137 184zM503 1136l521 521l525 -521h-318v-632h-413v632h-315z" />
<glyph unicode="&#xf205;" d="M100 620v812q0 51 31.5 105.5t75.5 79.5l704 406q44 25 107 25t107 -26l703 -406q44 -26 75.5 -80.5t30.5 -105.5v-812q0 -51 -31.5 -105t-75.5 -80l-704 -406q-44 -25 -107 -25t-107 26l-703 406q-44 26 -75.5 80.5t-30.5 105.5zM612 1044q0 -28 3 -53q4 -29 7 -40h147 q5 -56 -10 -98q-16 -48 -34 -84q-17 -32 -37 -77q-17 -37 -17 -83q0 -24 2 -37q4 -23 7 -31h637q47 0 75 27q30 27 30 98q0 36 -4 64q-3 30 -6 49h-451q19 39 33 84t15 88h179q36 0 61 22q24 21 24 80q0 27 -3 52q-3 29 -7 42h-264q-3 16 -11 50q-5 23 -5 59q0 63 28 97 q29 35 89 35q36 0 61 -6q29 -9 44 -16q22 -10 40 -15q18 -7 48 -7q56 0 86 54q31 53 31 129q-64 38 -145 65q-80 28 -181 28q-79 0 -140 -20q-66 -20 -112 -59q-48 -42 -74 -101q-27 -60 -27 -142q0 -34 5 -81q4 -38 11 -70h-50q-35 0 -61 -23q-24 -24 -24 -80z" />
<glyph unicode="&#xf206;" d="M129 798h511v994h768v-994h511l-895 -1054z" />
<glyph unicode="&#xf207;" d="M129 738l895 1054l895 -1054h-511v-994h-768v994h-511z" />
<glyph unicode="&#xf208;" d="M0 -197q0 -14 10.5 -24.5t24.5 -10.5h1978q14 0 24.5 10.5t10.5 24.5v1790q0 14 -10.5 24.5t-24.5 10.5h-282q-14 0 -24.5 -10.5t-10.5 -24.5v-181q-3 -60 -47 -102.5t-104 -42.5h-133q-61 0 -104.5 42t-46.5 102v182q0 14 -10.5 24.5t-24.5 10.5h-402q-14 0 -24.5 -10.5 t-10.5 -24.5v-184q-4 -60 -47 -101t-103 -41h-133q-59 0 -102 40t-48 99v187q0 14 -10.5 24.5t-24.5 10.5h-286q-14 0 -24.5 -10.5t-10.5 -24.5v-1790zM428 285q0 88 66 141l145 126q81 65 110.5 101.5t29.5 79.5q0 34 -23 58t-68 24q-46 0 -99 -23.5t-74 -23.5 q-38 0 -63.5 38t-19.5 99q113 84 265 84q126 0 200.5 -67.5t74.5 -179.5q0 -152 -161 -257l-135 -99v-2h298q10 -45 10 -79q0 -93 -76 -93h-469q-11 35 -11 73zM471 1419v314q0 14 10.5 24.5t24.5 10.5h133q14 0 24.5 -10.5t10.5 -24.5v-314q0 -14 -10.5 -24.5t-24.5 -10.5 h-133q-14 0 -24.5 10.5t-10.5 24.5zM1084 895q0 41 7 81h552v-122l-276 -585q-20 -40 -49.5 -54.5t-74.5 -14.5q-61 0 -111 22l294 583h-268q-74 0 -74 90zM1394 1419v314q0 14 10.5 24.5t24.5 10.5h132q15 0 25 -10.5t10 -24.5v-314q0 -14 -10 -24.5t-25 -10.5h-132 q-14 0 -24.5 10.5t-10.5 24.5z" />
<glyph unicode="&#xf209;" d="M209 -170v1876q0 35 25.5 60.5t60.5 25.5h1101l444 -430v-1532q0 -35 -26 -61t-61 -26h-1458q-35 0 -60.5 26t-25.5 61zM400 -65h1235v1358h-227q-35 0 -60.5 25.5t-25.5 60.5v222h-922v-1666zM571 188v124q0 13 9.5 22.5t22.5 9.5h773q13 0 23 -9.5t10 -22.5v-124 q0 -13 -9.5 -22.5t-23.5 -9.5h-773q-13 0 -22.5 9t-9.5 23zM571 568v124q0 14 9.5 23t22.5 9h773q14 0 23.5 -9.5t9.5 -22.5v-124q0 -13 -10 -22.5t-23 -9.5h-773q-13 0 -22.5 9.5t-9.5 22.5zM571 949v123q0 14 9.5 23.5t22.5 9.5h773q14 0 23.5 -9.5t9.5 -23.5v-123 q0 -13 -9.5 -23t-23.5 -10h-773q-13 0 -22.5 9.5t-9.5 23.5z" />
<glyph unicode="&#xf20a;" d="M1 -159v926q0 36 25.5 61.5t61.5 25.5h217v841q0 36 25.5 61.5t61.5 25.5h978l431 -430v-498h159q36 0 61.5 -25.5t25.5 -61.5v-926q0 -36 -25.5 -61.5t-61.5 -25.5h-1872q-36 0 -61.5 25.5t-25.5 61.5zM497 642h1113v640h-228q-36 0 -61.5 25.5t-25.5 61.5v222h-798 v-737v-159v-53zM1577 97q0 -49 34.5 -84t83.5 -35t84 35t35 84t-35 83.5t-84 34.5t-83.5 -34.5t-34.5 -83.5z" />
<glyph unicode="&#xf20b;" d="M23 232q0 -100 71.5 -172t172.5 -72h1514q101 0 172.5 72t71.5 172v498h-2002v-498zM23 1002v82q0 100 71.5 172t172.5 72h1514q101 0 172.5 -72t71.5 -172v-82h-2002zM1481 176v257h354v-257h-354z" />
<glyph unicode="&#xf20c;" d="M105 47v1204v4l866 -865q24 -24 58 -22q35 -2 59 22l855 855v-1198q0 -32 -23 -55t-55 -23h-1682q-32 0 -55 23t-23 55zM271 1329h1517l-759 -758z" />
<glyph unicode="&#xf20d;" d="M5 1090l474 472v-283h660v-378h-660v-284zM678 270h796v-340l569 569l-569 569v-342h-796v-456z" />
<glyph unicode="&#xf20e;" d="M0 -256v2048h1226v-2048h-152v1895h-921v-1895h-153zM331 127v1399h631v-1765zM1313 509h179v-297l556 556l-556 556v-297h-179v-518z" />
<glyph unicode="&#xf300;" d="M597 5q28 -5 79 -5q95 0 135 37q33 33 33 78q0 40 -24 64.5t-57 33.5v1q31 11 48.5 34t17.5 52q0 45 -32 69q-35 28 -107 28q-56 0 -93 -8v-384zM648 42v149h42q44 0 72 -19t28 -57q0 -39 -28.5 -57.5t-71.5 -18.5q-27 0 -42 3zM648 229v126q24 3 45 3q85 0 85 -64 q0 -28 -22.5 -46.5t-61.5 -18.5h-46zM912 3h219v43h-169v141h152v41h-152v124h161v42h-211v-391zM1161 351h119v-348h51v348h120v43h-290v-43z" />
<glyph unicode="&#xf301;" d="M1 140h264l73 287h304l73 -287h263l-332 1256h-313zM367 624l121 554h3l122 -554h-246zM908 680h399v176h-399v-176zM1285 140h760v207h-476l478 855v191h-730v-207h430l-462 -861v-185z" />
<glyph unicode="&#xf302;" d="M0 547q7 -7 21 1q4 3 11.5 10.5t15 12t15.5 4.5q19 0 43 27q23 23 22 27l-2 14q0 -1 1 -2t4.5 -2t9.5 0q32 5 39 2q23 -5 28 -8l8 -6q-8 16 -14 19l-5 2.5t-3.5 2.5t-0.5 3t1.5 5t2.5 4.5t0 3.5l-11 13q11 1 12 3v4q0 6 3 7q12 2 12 -3q1 -2 8 -4t9 0l11 7q-14 16 -19 18 q-2 1 2 1q14 0 16 3l10 6l-9 13q10 -10 22 -10q17 0 30 5q9 4 17 9t6 8l-8 14l13 -3q6 1 9 11l-3 12q20 -18 22 -20q1 0 3 -2.5t3.5 -3.5t5 -1.5t5.5 1.5q1 0 17 15.5t34 26.5q11 7 25 17t23 16t18 7l30 6q38 36 41 36l4 5q4 4 10.5 11.5t15.5 16t23 17t29 13.5 q64 23 134 25q19 1 55.5 -5.5t47.5 -10.5l23 -5q40 2 50 2h34q0 1 1.5 3t6.5 4.5t13 2.5q20 -1 38 -8l66 -2q15 7 25 11l15 8q-67 8 -83 8q-1 0 -13 -1t-20.5 0t-21.5 3.5t-23 10.5t-16 20q-25 47 2 111q3 8 9 16t13.5 14.5t13 10.5t13 8.5t8.5 5.5q3 2 13.5 8.5t20 11.5 t15.5 7q61 19 80 22l31 4q14 8 32 9q37 4 62 -6l27 -7q9 33 18 41q2 2 11 12.5t19 18t22 9.5q42 7 65 -11q33 -26 37 -44l5 -43v-5q19 -4 20 -8q2 -7 -5 -9l-33 -5l-9 -11q1 0 1.5 -1l1.5 -3t-2 -5l-14 -13l-8 -3q2 -15 2 -19q0 -6 -6 -6l-8 4q-3 -7 -5 -9l-16 -18 q1 -1 3 -2.5t6 -3.5t7 -2q17 3 22 1l8 -3l17 5l11 3q2 0 6 4l8 8l3 4v11q12 -7 16 -7l12 3l-9 16l14 -4q-5 18 -5 23l1 18l4 7q6 -14 11 -18l9 3q3 9 0 15l-3 12l12 -4l1 14q7 -3 11 1l5 13v8q5 -8 11 -8l8 4q1 18 3 23q2 4 2 13t-2 11l24 -18l-15 18q21 -9 29 -18 q3 -4 8 -7.5t8 -5.5l4 -2q14 0 19 -3q7 -5 18 -5l19 -4l-9 12q14 -6 21 -10q3 -2 10.5 -3.5t9.5 -3.5q11 -11 18 -11q3 0 4 3t0 6v3q8 -5 11 -9q1 -2 3.5 -3t6.5 -2t5 -2l13 -15q11 2 17 -4q38 -31 39 -32q3 -1 20.5 -18.5t21.5 -24.5q3 -5 19 -26t18 -23q4 -5 23 -23.5 t28 -26.5l44 -37q11 -10 13 -15q3 -15 0 -22l-11 -14q5 -14 -1 -23q-10 -14 -23 -18l-12 -1q4 -6 -3 -14q-9 -11 -31 -6q-15 4 -21 15l-7 11q-2 3 -19 8l-47 17q-7 2 -16 2q-5 0 -13 4.5t-9 4.5q-14 7 -24 11q-2 1 -9 1t-14 -0.5t-15 0.5l-28 4q-3 -2 -11 -2l-14 5 q-20 -14 -25 -18l-17 -20q-14 -28 -25 -42l-45 -59l-12 -30l-12 -28l1 -56q-1 -26 -16 -65q-3 -8 -11.5 -22.5t-15.5 -24.5l-6 -10q13 -18 33 -32q51 -38 73 -51q33 -17 45 -24q10 -7 11 -9l4 -16q8 -13 10 -24q0 -5 3 -14t2 -16q-1 -5 -4.5 -13t-6.5 -14l-4 -5 q-6 -22 -6 -31q0 -39 -7 -67l-6 -25q-1 -10 -1 -13q0 -7 -6 -15l-20 -19q-9 -13 -16 -21q-8 -8 -38 -44l-25 -25q-12 -3 -18 4t-9 22t-1 24q6 19 11 21l18 4q6 11 12 12q5 1 19 1q3 0 10.5 12t8.5 17q0 1 -1.5 8.5t-1.5 14t3 10.5l13 31q5 29 10 40l7 37q-1 17 -1 23l-1 19 q-8 0 -10 6l-2 17q-35 10 -46 10q-23 0 -55 6l-37 14q-24 -1 -34 1l-24 10q-12 -2 -25 1l-35 10q-20 -7 -34 -9l-48 -9q5 -28 9 -47l6 -58q8 -42 11 -49q1 -3 3 -19t3 -20q0 -4 1 -10t1.5 -10.5t0.5 -7.5q-2 -5 -10.5 -16.5t-14.5 -15.5q-18 -14 -31 -14l-27 3q-36 0 -54 -1 q-9 -1 -26 -2t-26 -1q-37 -2 -39 -1q-3 1 -8.5 6t-10.5 7l-42 8q39 -32 45 -37q3 -2 10 -9l10 -10q1 -1 24 -17.5t28 -22.5q20 -22 34 -43q2 -3 3 -7.5t1 -8t-2 -3.5t-24.5 -0.5t-23.5 -0.5l-25 3q0 3 -4 6q-1 2 -3 2.5t-3 2.5q-7 7 -5 16l3 13q-9 13 -16 13 q-2 0 -10.5 -1.5t-13.5 1.5q-8 3 -50 45q-16 16 -69.5 63.5t-62.5 54.5l-10 6q-9 7 -13 10.5t-11.5 10t-11.5 13.5t-5 14q-2 11 -3 31t-1.5 39.5t-0.5 23.5q-7 46 -27 77q-7 11 -22.5 23.5t-19.5 20.5q-17 -48 -30 -71l-45 -88q-5 -21 -5 -23v-19q46 -47 54 -53 q15 -15 26 -29q23 -26 31 -32l16 -12t20.5 -16t10.5 -10l7 -28q8 -23 12 -29l6 -22q7 -17 8 -26v-47q0 -3 -3.5 -7t-6.5 -7l-4 -2q-14 6 -25 22q-7 8 -20 35q-3 9 3 17l8 11q1 4 -4 13q-10 20 -12 20q-13 3 -19 17q-10 22 -38 45q-41 36 -151 121q-14 12 -15 28q-1 5 3 17 t11 31t11 32l15 73q-38 42 -57 61l-57 67q-5 -5 -9 -5t-16 12l-15 25l-12 12q-12 2 -33 -4q-23 -5 -41 -16q-3 -2 -19 -8.5t-32 -14t-23 -15.5q-1 -1 -14.5 -18t-25 -28t-26.5 -20q-57 -34 -112 -46q-52 -11 -65 2q-22 22 -29 23q-1 0 -18 10l-7 7t-9 9.5t-6 4.5zM940 342 q3 -27 10 -44q3 -11 18 -29l26 -25q19 11 30 15q9 3 21 2q3 0 4.5 -2t2.5 -6t1 -5l7 -17q9 -2 18 -3h17q2 5 18 5q26 0 38 -6l6 -2q23 1 35 0q7 -1 24.5 0t20.5 0l24 -1q-3 8 0 14l4 17q-13 15 -23 34q-5 9 -56 117q-12 27 -25 40q-15 11 -23 31q-13 -3 -72 4q-78 9 -117 24 v-49l-9 -63q-1 -41 0 -51z" />
<glyph unicode="&#xf303;" d="M244 98v1399q0 13 8.5 21.5t21.5 8.5h356q13 0 21.5 -8.5t8.5 -21.5v-1399q0 -13 -8.5 -21.5t-21.5 -8.5h-356q-13 0 -21.5 8.5t-8.5 21.5zM816 98v1839q0 13 8.5 21.5t21.5 8.5h356q13 0 21.5 -8.5t8.5 -21.5v-1839q0 -13 -8.5 -21.5t-21.5 -8.5h-356q-13 0 -21.5 8.5 t-8.5 21.5zM1396 97v880q0 13 8.5 21.5t21.5 8.5h356q13 0 21.5 -8.5t8.5 -21.5v-880q0 -12 -8.5 -21t-21.5 -9h-356q-13 0 -21.5 9t-8.5 21z" />
<glyph unicode="&#xf304;" d="M85 -256v2048h1878v-2048h-1878zM256 -85h1536v1706h-1536v-1706zM529 144v108h987l3 -108h-990zM529 360v108h987l3 -108h-990zM529 580v108h495l1 -108h-496z" />
<glyph unicode="&#xf305;" d="M136 60v1568h1224l-76 -152h-996v-1258h80v-158h-232zM492 -256v1576h718l-76 -162h-490v-1258h1056v998l166 332v-1486h-1374zM1000 608l548 1184h152l-544 -1152v10zM1038 442l38 -152l156 80l-76 86zM1286 616l508 1104l72 -16l46 -122l-526 -1136l-26 100z" />
<glyph unicode="&#xf306;" d="M129 738l1253 1054l537 -1054h-511l-203 -597h-768l203 597h-511zM302 -256l40 118h768l-40 -118h-768zM372 -50l38 111h768l-38 -111h-768z" />
<glyph unicode="&#xf307;" d="M326 1014l73 79l-73 79l89 60l-54 93l100 39l-32 103l107 15l-9 108l108 -9l15 107l103 -32l39 100l93 -54l60 89l79 -74l79 74l60 -89l93 54l39 -100l103 32l15 -107l108 9l-9 -108l107 -15l-32 -103l100 -39l-54 -93l89 -60l-74 -79l74 -79l-89 -60l54 -93l-100 -39 l32 -103l-107 -15l9 -108l-108 9l-15 -107l-103 32l-39 -100l-93 54l-60 -89l-79 74l-79 -74l-60 89l-93 -54l-39 100l-103 -32l-15 107l-108 -9l9 108l-107 15l32 103l-100 39l54 93zM597 1093q0 -177 125 -302t302 -125t302 125t125 302t-125 302t-302 125t-302 -125 t-125 -302zM704 -255v686l14 4l19 -49l25 -64l59 34l46 27l30 -44l38 -57l50 47l39 36l39 -36l50 -47l38 57l30 44l45 -27l60 -34l25 64l19 49l14 -4v-686l-320 320zM879 891q0 -7 7 -7h147q48 0 76 8q29 7 48 23q18 14 26 38t8 51q0 40 -19 60q-20 23 -49 30q51 24 51 83 q0 31 -12 50q-10 19 -32 32q-18 11 -47 16q-30 5 -59 5h-138q-7 0 -7 -7v-382zM972 959v93h67q29 0 43 -11q13 -12 13 -35q0 -26 -14 -36q-14 -11 -48 -11h-61zM972 1116v89h55q30 0 42 -10q12 -11 12 -32q0 -25 -11 -36q-13 -11 -38 -11h-60z" />
<glyph unicode="&#xf370;" d="M0 768q0 215 86 410q101 -210 291 -428q83 -95 172.5 -171t167.5 -121.5t133.5 -71t104.5 -40.5q-18 -56 -42 -111q-39 -83 -97 -167q-56 21 -121 51t-177.5 101.5t-212.5 158.5q-200 176 -302 323zM41 483q84 -92 192 -187q240 -210 515 -320q-66 -80 -139 -144 q-206 92 -355.5 262.5t-212.5 388.5zM153 1304q90 145 215 250q59 -232 195 -430q53 -76 121 -144t133.5 -114.5t109 -73.5t79.5 -45q6 -145 -24 -294q-44 14 -94 37.5t-120.5 65.5t-151.5 111t-156 155q-95 109 -166 217t-98.5 164.5t-42.5 100.5zM464 1625 q256 167 560 167q87 0 185 -18q-116 -30 -228 -74q-229 -90 -462 -255q-35 93 -55 180zM564 1341q225 166 458 256q201 80 408 111q205 -89 358 -259q-227 -2 -450 -57q-102 -25 -202.5 -65.5t-180 -86.5t-130.5 -80t-94 -68q-47 50 -77 95q-52 76 -90 154zM725 -211 q183 175 287 400q38 82 63 176t31.5 164.5t10 136t-1.5 90.5q125 81 269 131q17 -348 -48 -581q-29 -103 -69.5 -199t-83 -167t-73 -115t-59.5 -80q-5 0 -14 -0.5t-13 -0.5q-152 0 -299 45zM810 1014q267 202 554 272q253 61 511 51q98 -147 141 -318q-218 48 -430 26 q-88 -9 -176 -33.5t-159 -57.5t-116.5 -57.5t-82.5 -49.5q-129 68 -242 167zM1201 -240q162 232 241 516q71 257 51 643q56 12 105 17q92 10 192 3q23 -202 -17 -509q-26 -209 -122 -471q-201 -156 -450 -199zM1821 126q45 160 62 290q38 302 19 512q72 -12 137 -28 q9 -77 9 -132q0 -179 -59 -343t-168 -299z" />
<glyph unicode="&#xf371;" d="M0 768q0 208 81 397.5t218 327t327 218.5t398 81t397.5 -81t327 -218.5t218.5 -327t81 -397.5q0 -195 -70 -372.5t-197 -316.5v388h-212v-566q-103 -65 -222 -105v671h-212v-717q-55 -6 -111 -6t-111 6v717h-212v-671q-119 40 -222 105v566h-212v-388 q-127 139 -197 316.5t-70 372.5zM294 1004l136 -424h112l143 424h-102l-54 -181q-27 -96 -38 -150h-2q-8 43 -38 152l-52 179h-105zM295 1370l151 -104l-62 -173l146 111l145 -112l-60 173l151 104l-183 -4l-52 176l-53 -176zM706 789q0 -93 54 -154.5t145 -61.5 q95 0 152 60t57 163q0 92 -53.5 153.5t-148.5 61.5q-92 0 -149 -62.5t-57 -159.5zM787 1486l150 -105l-61 -172l146 110l145 -111l-60 173l151 103l-183 -3l-52 175l-53 -175zM807 791q0 64 28 104t76 40t74.5 -40.5t26.5 -101.5q0 -63 -27 -103.5t-74 -40.5q-48 0 -76 39 t-28 103zM1127 923h114v-343h96v343h116v81h-326v-81zM1278 1370l151 -104l-62 -173l146 111l145 -112l-60 173l151 104l-183 -4l-52 176l-53 -176zM1505 580h270v79h-175v100h156v78h-156v88h166v79h-261v-424z" />
<glyph unicode="&#xf372;" d="M0 70h2048l-1093 1396l-234 -440l-300 -116zM134 154l274 434l73 137l120 109l-90 -141l-51 -378l81 351l84 85l84 144l135 6l74 56l62 -56l44 19l10 102l107 -72l119 -272l32 -318l3 302l-77 239l151 -239l111 -56l392 -452h-1738z" />
<glyph unicode="&#xf380;" d="M0 778q0 171 67 327t179.5 268.5t268.5 179.5t327 67t327 -67t269 -179.5t179.5 -268.5t66.5 -327v-11q-144 0 -263 -78q7 51 7 89q0 119 -46.5 227.5t-125 187t-187 125t-227.5 46.5t-227.5 -46.5t-187 -125t-125 -187t-46.5 -227.5t46.5 -227.5t125 -187t187 -125 t227.5 -46.5q198 0 357 122q-2 -22 -2 -34q0 -125 60 -234q-193 -110 -415 -110q-171 0 -327 67t-268.5 179.5t-179.5 268.5t-67 327zM298 778q0 148 73 273t198 198t273 73t273.5 -73t198.5 -198t73 -273q0 -60 -16 -126q-39 -34 -76 -80q46 100 46 206q0 206 -146.5 352.5 t-352.5 146.5t-352 -146.5t-146 -352.5t146 -352t352 -146q120 0 224.5 53.5t174.5 146.5q-24 -53 -34 -105q-157 -141 -365 -141q-148 0 -273 73t-198 198t-73 273zM402 778q0 182 129 311t311 129t311.5 -129t129.5 -311t-129.5 -311t-311.5 -129t-311 129t-129 311z M1321 280q0 150 106.5 256.5t256.5 106.5q151 0 257.5 -106.5t106.5 -256.5q0 -151 -106.5 -257.5t-257.5 -106.5q-150 0 -256.5 106.5t-106.5 257.5z" />
<glyph unicode="&#xf381;" d="M0 914q0 138 97 233q97 97 234 97q130 0 226 -88q90 -84 104 -204h33q14 120 104 204q96 88 226 88q131 0 225 -88q90 -82 104 -204h34q14 120 104 204q94 88 225 88q138 0 235 -97t97 -233q0 -135 -97 -234q-98 -96 -235 -96h-16q-14 -120 -104 -204q-94 -88 -226 -88 q-131 0 -225 88q-90 84 -104 204h-17h-17q-14 -121 -103 -204q-96 -88 -226 -88t-226 88q-89 83 -103 204h-18q-136 0 -234 96q-97 97 -97 234zM77 914q0 -105 74.5 -179t179.5 -74h18q11 98 75.5 173.5t159.5 104.5q-10 95 -78 159q-72 69 -175 69q-105 0 -179.5 -74 t-74.5 -179zM425 597q10 -96 82.5 -162t170.5 -66t170.5 66t82.5 162q-96 28 -160.5 104t-76.5 174q-2 0 -7.5 0.5t-8.5 0.5t-9 -0.5t-8 -0.5q-12 -98 -76.5 -173.5t-159.5 -104.5zM431 681q54 22 94 69q39 47 53 105q-54 -22 -94 -69t-53 -105zM771 939q96 -28 160.5 -104 t75.5 -174h17h17q12 98 77 175q65 76 159 103q-10 97 -82.5 162.5t-170.5 65.5t-170.5 -65.5t-82.5 -162.5zM777 856q14 -59 53 -106q40 -46 95 -69q-14 61 -54 105q-35 44 -94 70zM1118 597q9 -96 81.5 -162t170.5 -66q101 0 175 69q69 66 78 159q-95 29 -159.5 104.5 t-76.5 173.5q-2 0 -8 0.5t-9 0.5q-2 0 -8 -0.5t-9 -0.5q-11 -98 -75.5 -173.5t-159.5 -104.5zM1124 681q56 25 94 69q39 47 53 105q-54 -22 -94 -69q-39 -45 -53 -105zM1464 939q95 -28 159.5 -104t76.5 -174h16q106 0 180.5 74t74.5 179t-74.5 179t-180.5 74 q-98 0 -170.5 -65.5t-81.5 -162.5zM1469 856q13 -57 54 -106q40 -47 94 -69q-14 60 -53 105q-37 44 -95 70z" />
<glyph unicode="&#xf382;" d="M2 170q-7 21 5 21q4 0 10 -4q2 -2 6 -5t16 -7t20 4q3 2 13.5 8.5t14.5 10t10.5 15t11.5 28.5q31 115 57 136q17 14 70 35q39 92 77.5 157t75.5 101.5t66 55.5t65 33q20 8 38 66q2 9 23.5 35t23.5 30q8 13 25.5 19t35.5 -3q89 -54 106 -60q2 -1 16 5t36 20.5t39 31.5 q16 17 43 33.5t46 25.5l18 8q62 58 82 80q60 65 83 114q9 15 4.5 21.5t-8.5 7.5t-13 1h-1h-1q-46 0 -101 -16t-90 -36q-57 -33 -83 0q-4 5 -15 19t-18 24t-11 19q-4 10 -4 17t2 11l3 4l103 91q-4 0 -8.5 1t-12 10.5t2.5 31.5q6 17 31 32t50 12q27 -4 43.5 -18t16.5 -33 q0 -39 37 -33q41 6 78 33q48 37 61 41q18 6 89 -1q12 -1 21 -2l34 7q-2 17 -4 45t7 87.5t34 87.5q53 59 111 59q48 0 80 -18.5t43.5 -45.5t14 -58.5t-3 -57.5t-14.5 -43q-24 -46 -78 -117q6 0 18 -10q11 -9 18 -12.5t17 -10.5q7 -4 60.5 -34t108.5 -61.5t72 -45.5 q22 -17 52.5 -44.5t36.5 -31.5q25 -17 29 -59q2 -16 -1.5 -46.5t-2.5 -36.5q0 -2 10.5 -3.5t20.5 -1.5l10 -1q37 -8 56 -46q9 -20 8 -39t-6.5 -33t-11.5 -14q-3 0 -31.5 9t-36.5 4q-5 -3 -14 -13.5t-20 -17.5t-27 -7t-31 12t-22 24l-8 12l-43 100l-54 20q0 -2 -1.5 -4.5 t-7.5 -8.5t-16 -8t-30 1t-46 14q-16 7 -27 8.5t-13 -0.5l-3 -2q-6 -2 -15 -6.5t-30.5 -28.5t-34.5 -59l-82 -206q2 -1 6 -2.5t12.5 -5.5t13.5 -7t4 -5q-5 -8 -21.5 -24t-30.5 -28l-14 -12q2 -1 4.5 -4t10.5 -12t15.5 -19t17.5 -25t18 -30.5t15 -34.5t10.5 -38.5t3 -41.5 t-6.5 -43q-6 -19 -54 -59q-49 -42 -120 -42q-18 0 -28.5 -4t-12.5 -8l-2 -4l-15 -45q13 -30 28 -49q31 -41 13 -71q-7 -12 -17.5 -15.5t-17.5 -0.5l-7 2l-62 23q-4 -9 -12 -25t-42 -64.5t-79 -95.5q-15 -16 -33.5 -20t-39.5 9q-10 8 -21 16.5t-15 12t-5 4.5 q-30 30 18.5 208.5t102.5 243.5l-20 7l34 97q-16 -6 -46 -29q-13 -10 -33.5 -19t-34.5 -12l-14 -4q3 -5 7.5 -12t12 -22.5t6.5 -22.5q-1 -4 -15.5 -17.5t-28.5 -24.5l-14 -11l-31 -18l-26 -13q22 -32 24 -44l-5 -24l70 -47l-12 -21l-72 43l-19 -13q-25 13 -35 17 q-4 2 -6.5 -1t-7 -11.5t-9.5 -14.5q-6 -7 -14 -8.5t-13 0.5l-6 2l-45 22l-25 -29l-153 79q-72 -73 -111 -105q-85 -70 -148 -43q-27 10 -56 32q-24 -2 -40 1q-9 1 -20.5 3t-14 2.5t-9.5 2.5t-12 4t-17 8q-14 7 -35 21t-36.5 23t-23.5 8q-11 -1 -18 20zM125.5 177 q-1.5 -12 2.5 -20t13 -15q19 -13 34 -18q-9 24 -4 79.5t25 113.5q9 24 21 51q-47 -14 -51 -32q-3 -12 -10 -44t-13 -53q-1 -4 -7 -21t-7.5 -23t-3 -18zM618 854l3 -6q20 -5 47 -15q32 -13 59 -37q8 -5 10 -3.5t5.5 9t6.5 9.5q8 6 -9 23q-8 8 -78 46l-26 5 q-14 -7 -17.5 -16.5t-0.5 -14.5zM1093 106q10 -1 18 8q12 12 4 27q-3 4 -5 2q-33 -34 -17 -37zM1197 353q4 -1 10.5 5.5t16.5 18t16 16.5q8 7 9 15.5t-3 14.5t-10 6q-13 0 -24.5 -19.5t-14.5 -36.5t0 -20zM1664 1075q-8 -7 18 -23q2 -2 7 -4l9 -6q7 -5 27.5 -25.5 t42.5 -28.5q25 -9 27 8t-11 25q-45 33 -90 55q-10 4 -16.5 4t-9.5 -2z" />
<glyph unicode="&#xf383;" d="M0 713h969v-274q-211 -11 -398 -100t-326 -239q-109 127 -172.5 284t-72.5 329zM0 823q9 172 72.5 329t172.5 284q139 -150 326 -239t398 -100v-274h-969zM321 21q124 136 291.5 217t356.5 91v-585q-185 10 -351.5 82t-296.5 195zM321 1515q130 123 296.5 195t351.5 82 v-585q-189 10 -356.5 91t-291.5 217zM1079 -256v585q189 -10 356.5 -91t291.5 -217q-130 -123 -296.5 -195t-351.5 -82zM1079 439v274h969q-9 -172 -72.5 -329t-172.5 -284q-139 150 -326 239t-398 100zM1079 823v274q211 11 398 100t326 239q109 -127 172.5 -284t72.5 -329 h-969zM1079 1207v585q185 -10 351.5 -82t296.5 -195q-124 -136 -291.5 -217t-356.5 -91z" />
<glyph unicode="&#xf384;" d="M1.5 209.5q0.5 154.5 21.5 291.5q207 -37 298 -37q22 0 52.5 2.5t62.5 6t68.5 8.5t68.5 10t64 10.5t53 9t38 6.5l16 3l30 6l210 471l-85 4q-11 0 -64 4.5t-145.5 19.5t-152.5 36q-102 36 -205 122q52 67 127 137.5t136 112.5q46 31 79 50.5t106 53t172.5 55.5t219.5 30 q13 1 35 0.5t88.5 -7.5t130.5 -22t150 -50.5t158.5 -84.5t144 -131.5t117.5 -186.5t51 -225t-24 -232t-75 -220.5t-101 -199t-103 -159t-80 -107.5l-32 -38l-1000 32q-136 0 -290 -19.5t-240 -38.5l-85 -19q-5 31 -10.5 86t-5 209.5zM45 616q44 186 122 320q39 69 95 152 q116 -96 236 -137q119 -42 311 -60l-117 -261q-270 -49 -371 -49q-72 0 -276 35zM1033 848q0 -68 48.5 -117t117.5 -49t117.5 49t48.5 117q0 69 -48.5 117.5t-117.5 48.5t-117.5 -48.5t-48.5 -117.5z" />
<glyph unicode="&#xf385;" d="M0 768q0 277 137 511t368 370q112 -216 165 -451l-105 -28q-22 -6 -33 -25.5t-5 -41.5q4 -18 19.5 -29.5t33.5 -11.5q4 0 14 2l96 26q21 -123 24 -253l-98 -5q-23 -2 -37.5 -18.5t-13.5 -38.5t16.5 -37t37.5 -15h3l92 5q-4 -131 -26 -262l-77 36q-20 9 -41 1t-31 -28 t-2 -41.5t28 -31.5l100 -46q-56 -240 -174 -461q-225 138 -358 369t-133 504zM588 -157q117 217 179 466l73 -34q12 -5 23 -5q35 0 49 32q10 20 2 41t-28 31l-96 44q30 164 33 315l101 6q22 1 37.5 17.5t14.5 39.5q-2 23 -19 38.5t-39 13.5l-95 -5q-3 141 -27 276l90 24 q22 6 33 25.5t5 41.5t-25.5 33.5t-41.5 5.5l-82 -22q-55 246 -173 473q201 92 422 92q228 0 437 -99q-118 -217 -178 -459l-56 15q-22 6 -41.5 -5.5t-25.5 -33.5t5 -41.5t33 -25.5l61 -16q-27 -148 -33 -282l-60 3q-23 2 -39.5 -13.5t-18.5 -38.5q-1 -23 14.5 -39.5 t37.5 -17.5l64 -4q2 -174 31 -335l-57 -26q-20 -10 -28 -31t2 -41q14 -32 49 -32q11 0 23 5l33 15q55 -233 169 -454q-201 -92 -422 -92q-229 0 -436 99zM1333 730l129 -7h3q22 0 37.5 15t16.5 37t-13.5 38.5t-37.5 18.5l-133 7q6 133 30 259l125 -34q10 -2 14 -2 q18 0 33.5 11.5t19.5 29.5q6 22 -5 41.5t-33 25.5l-131 35q55 224 169 436q225 -138 358 -369t133 -504q0 -277 -137 -511.5t-368 -370.5q-113 217 -164 451l140 65q20 10 28 31.5t-2 41.5t-31 28t-42 -1l-115 -54q-23 138 -24 282z" />
<glyph unicode="&#xf386;" d="M1 547q0 156 110.5 266.5t266.5 110.5q77 0 155 -34l123 211l-109 181l-7 -1q-8 -1 -14.5 0t-11 3.5t-8 5t-5 7.5t-3 8t-2 9t-0.5 8.5v8.5v6q0 12 8.5 20.5t20.5 8.5h260q12 0 20.5 -8.5t8.5 -20.5t-8.5 -20t-20.5 -8l-154 -18l97 -158h660l-42 102q-1 2 -3 5.5 t-6.5 14.5t-8 21t-6 22.5t-2.5 22.5t4.5 18t13.5 11q18 7 55 12.5t90.5 2t90.5 -22.5q38 -21 56.5 -42.5t20.5 -54.5q-1 -24 -11.5 -46t-24.5 -36t-28 -25t-24 -16l-10 -5q-14 -10 -29.5 -7.5t-25.5 15.5q-10 14 -7.5 29.5t16.5 25.5q7 3 18 9t28.5 22t16.5 28 q0 11 -3.5 18.5t-12 13t-12.5 7.5t-16.5 5t-13.5 3q-16 4 -42 5t-44 -1l-17 -1l156 -381q53 16 105 16q156 0 266.5 -110.5t110.5 -266.5t-110.5 -266.5t-266.5 -110.5q-155 0 -265.5 110.5t-110.5 266.5q0 106 54 194.5t144 136.5q-40 98 -58 143l-393 -498 q-11 -15 -52 -15h-237q-15 -143 -122 -240.5t-252 -97.5q-156 0 -266.5 110.5t-110.5 266.5zM80 547q0 -123 87 -210.5t211 -87.5q112 0 196 74.5t99 184.5h-295q-23 0 -34 19q-11 21 0 40l149 255q-55 23 -115 23q-124 0 -211 -87.5t-87 -210.5zM446 586h227 q-17 122 -112 196q-25 -43 -65 -111zM600 850q64 -46 104 -115t48 -149h191l-243 435q-75 -129 -100 -171zM772 1055l217 -391q19 -32 24 -36t15 6q137 172 332 421h-588zM1372 547q0 -123 87.5 -210.5t210.5 -87.5q124 0 211 87.5t87 210.5t-87 210.5t-211 87.5 q-35 0 -75 -10l112 -273q6 -15 -0.5 -30t-21.5 -21q-15 -7 -30 -0.5t-21 21.5q-52 127 -112 273q-68 -39 -109 -108t-41 -150z" />
<glyph unicode="&#xf387;" d="M1 -241q-5 2 22 88.5t57 172.5l30 85q-3 0 -6.5 2t-11 11.5t-9.5 25.5q-1 12 19 99l120 -42q-36 -79 -46 -90q-11 -11 -22 -14t-17 -1l-6 2l-91 -254q-33 -88 -38 -86zM11 -239q-2 5 84 34t173 56l87 27q-10 21 15 44q10 10 91 43l38 -121q-85 -18 -100 -15 q-15 2 -24.5 9t-10.5 13l-2 6l-261 -78q-88 -25 -90 -20v2zM14 -230q-4 4 62 67t134 123l67 61q-2 2 -4.5 5t-6 15.5t4.5 26.5q6 13 65 77l85 -94q-67 -51 -84 -56q-16 -4 -26 -2t-15 7l-4 5l-186 -165q-87 -75 -91 -71zM107 260q5 18 15 58l132 -45q-16 -35 -24 -55z M127 336q2 10 7.5 29t8.5 28l141 -48q-16 -38 -23 -56zM148 411q83 284 116 312q10 9 21.5 13t18.5 3l6 -1l169 502q-66 68 -102 131q-28 47 -15.5 210.5t52.5 187.5q20 10 46.5 8.5t56 -12t54 -21.5t40.5 -20l16 -10q6 7 15 18t28.5 27.5t30.5 12.5t16.5 -27t5.5 -43v-21 q20 -2 49.5 -7.5t84.5 -28.5t67 -54q11 -28 -29.5 -104.5t-97.5 -146t-90 -83.5q-30 -12 -70 -22t-65 -14l-26 -4l-180 -499q22 -10 28 -40q7 -41 -103 -317zM348 159q6 6 20 20.5t22 22.5l93 -103q-40 -30 -48 -37zM402 215q28 28 42 43l100 -110q-32 -26 -47 -38zM457 271 q209 209 251 218q16 3 26.5 0.5t15.5 -6.5l6 -4l389 360q-25 91 -26 164q0 36 42 115.5t96.5 147t84.5 68.5q32 1 72.5 -36.5t64.5 -75.5l24 -39q3 1 8 3.5t19 7t25.5 7.5t23 2.5t16.5 -5.5q7 -11 1.5 -31t-15.5 -39l-10 -20q6 -4 15.5 -11.5t34 -29t42.5 -41.5t31.5 -46.5 t10.5 -46.5q-4 -30 -76.5 -77.5t-156 -81.5t-119.5 -30q-32 4 -72.5 14.5t-64.5 19.5l-24 9l-396 -352q2 -2 3.5 -6t4 -16.5t-2.5 -25.5q-14 -41 -243 -228zM478 -28q39 16 56 22l41 -133q-21 -5 -59 -13zM551 1q18 7 56 21l44 -142q-40 -10 -59 -15zM624 28q279 102 320 92 q13 -3 23 -10.5t13 -13.5l3 -5l504 162q16 93 46 160q15 32 86.5 86.5t149.5 92.5t106 26q30 -12 50.5 -63t26.5 -96l5 -45q83 -1 90 -25q4 -11 -11 -29t-32 -30l-17 -13q2 -3 5 -9t11 -23t15 -33.5t14 -39t10.5 -41.5t1.5 -38t-10 -31q-16 -25 -101.5 -38t-176 -8.5 t-120.5 23.5q-28 17 -60 43.5t-50 44.5l-18 18l-508 -151q5 -23 -15 -45q-28 -31 -317 -105z" />
<glyph unicode="&#xf388;" d="M300 1068q0 197 97 363.5t263.5 263.5t363.5 97t363.5 -97t263.5 -263.5t97 -363.5q0 -86 -22 -174q-41 0 -75 -45q-9 -4 -11 -1q-1 1 -3 36q10 94 17 125q33 130 -50 174q-110 59 -207 -48q-19 -22 -29.5 -61.5t-22.5 -122.5q-6 -39 -8 -44q-13 -51 -23 -71t-51 -72 q-20 -17 -173 -62q-53 -14 -71 -22q-21 -9 -40.5 -28t-52.5 -59q-66 -80 -89 -89q-18 -8 -58 -13q-85 -13 -128 -42q-160 96 -255.5 260.5t-95.5 358.5zM612 243q12 85 53 128q26 27 60 38t75 16t64 15q36 16 101.5 93.5t80.5 83.5q10 4 74.5 22t121.5 39.5t72 40.5 q47 59 61 85t29 86q3 10 9.5 57t15 88.5t19.5 53.5q61 66 125 33q34 -18 14 -101q-4 -16 -12 -78.5t-9 -78.5q0 -7 -36.5 -87.5t-38.5 -100.5l-17 -126q0 -24 22 -30q29 28 58 55q13 12 35 41.5t37 52.5l16 23l39 78q33 57 46 55q4 -1 6 -7.5t3 -18t1 -25.5t-0.5 -30.5 t-1.5 -31.5t-2 -30.5t-2 -26.5t-2 -20t-1 -10q0 -3 -84 -187q-3 -6 -178 -234q-4 -6 -75.5 -45.5t-140.5 -76.5l-70 -37l101 -295h-628z" />
<glyph unicode="&#xf389;" d="M122 -96q-13 24 3 49q12 18 29 26q19 11 37 11q112 16 213 32t157 27q75 14 84 20q16 11 21 19q4 4 9 17l2 4l268 632l-390 987q-10 26 15 37l54 24q6 3 12 3q4 0 10 -2q12 -5 17 -16l361 -848l361 848q5 11 16 16q8 2 11 2q6 0 12 -3l54 -24q25 -11 15 -37l-390 -987 l268 -632l2 -4q5 -13 9 -17q5 -8 21 -19q9 -6 84 -20q56 -11 157 -27t213 -32q18 0 37 -11q17 -8 29 -26q16 -25 3 -49l-4 -10q-4 -8 -19 -37.5t-21 -40.5q-13 -23 -35 -42q-24 -23 -47 -26h-5q-56 -4 -84 -4h-25q-43 3 -182 50q-75 25 -159 55l-2 1q-47 18 -67 58 q-10 18 -19 45l-1 3l-232 585l-232 -585l-1 -3q-4 -13 -19 -45q-20 -40 -67 -58l-2 -1q-84 -30 -159 -55q-139 -47 -183 -50h-24q-25 0 -85 4h-4q-23 3 -47 26q-25 21 -35 42q-4 8 -21 41.5t-23 44.5v2z" />
<glyph unicode="&#xf38a;" d="M4 545q30 108 75 148q11 10 30.5 29.5t31.5 30.5t31 22t38 14q26 6 18 7l17 5q18 4 35 7l29 2l-3 15q11 37 13 47q0 4 4.5 27.5t4.5 28.5l10 69q-84 43 -128 53q-23 5 -71 25.5t-59 20.5l-72 4l-3 15q114 36 163 40l197 27q26 3 30 -1l11 -20q39 3 47 -2q6 -4 11.5 -14 t5.5 -17l-13 -35q3 -29 7 -34l16 -11q18 -1 25 -1q3 0 68.5 -15t73.5 -16q13 -2 64 -12.5t56 -13.5q3 -1 6.5 -4t4.5 -6l2 -2l7 3q21 86 53 113q37 32 78 37q14 1 100.5 4t98.5 2q115 -6 149 -9l29 -8q17 -1 23 -2q12 -4 25 -17l1 -9q7 7 14 12l12 9l1 8l12 5l-2 7l10 7 q-3 2 -10 8t-11 9q-6 4 -17 18.5t-19 26.5l-8 13q55 84 64 92l82 61q154 -147 172 -178q12 -20 30 -41.5t23 -25.5q4 -4 48 -56.5t47 -58.5l19 -48l-29 -5q13 -24 15 -32l5 -20l13 -11q-91 -20 -105 -29l-91 -63q7 -12 7 -14l3 -9l17.5 5t35.5 7.5t40 4.5q15 -1 60.5 -12.5 t83.5 -23.5l38 -11l-27 -5q6 -3 17 -9t39 -28t49.5 -48t40.5 -69.5t22 -92.5q5 -92 -33 -167t-95 -113t-116 -41q-73 -3 -82 -4q-15 3 -36 8.5t-62.5 25.5t-74 47t-59.5 77.5t-30 112.5q-7 124 39 196q7 12 23 28t29 26l12 10l-15 22l-17 -2l11 12l-3 3l-11.5 -11.5 t-27.5 -30.5t-37 -45.5t-34 -52t-24 -54.5q-12 -40 -16 -72t-2 -44l1 -13l31 -89q1 -11 -3 -18q-4 -6 -28 -14t-54 -8q-14 0 -149 6t-179 4l-415 -9l-9 58q-46 -73 -61 -83q-1 -1 -14.5 -17t-30 -30t-56.5 -28t-93 -17q-1 2 -10 0t-28 1.5t-40.5 7.5t-49 16.5t-53.5 29 t-53.5 46t-48.5 66.5q-49 84 -37 210zM128 477q2 -75 57 -126t130 -49q75 3 126 58t49 130q-1 8 -3 22l-66 -38q-4 -44 -36 -75t-77 -32q-49 -1 -84.5 32t-37.5 82t31.5 85t82.5 37q24 1 54 -11l62 36q-51 38 -114 37q-75 -3 -126 -58t-48 -130zM325 827q1 -3 4 -5q2 -2 5 4 q1 2 2 5q1 2 12 26.5t20.5 47t9.5 25.5l-6 9l-19 -1q-4 -31 -7 -39zM344 812q22 -2 29 -6l15 -4l3 34q73 -22 103 -40l113 -77l16 5q4 0 33.5 -8t32.5 -10q2 -1 9 0.5t13 3.5l6 3l-15 6q-40 19 -58 41q-9 12 -26.5 37t-21.5 30q-6 8 -40.5 42t-36.5 36q-11 16 -60 49l-37 14 h-8q-10 -39 -13 -44l-54 -101zM1574 458q3 -75 58 -126t129 -49q75 3 126.5 58t48.5 130q-2 75 -57 126t-130 49q-20 -1 -44 -8l33 -57q3 0 13 2q49 2 85 -31.5t37 -82.5q2 -49 -31.5 -85t-82.5 -37q-49 -2 -84.5 31t-37.5 82q-1 36 18 67l-34 59q-50 -55 -47 -128z" />
<glyph unicode="&#xf38b;" d="M137 881q-2 15 5 23q4 7 39 30.5t68 43.5l33 21q-1 4 -2.5 11t-5 26t-5.5 34t-1.5 30.5t4.5 21.5q7 10 61.5 40t105.5 56l51 25q-16 67 4 78q69 36 135 63q13 6 73.5 54t77.5 46q10 0 20 -10.5t15 -21.5l5 -10q79 20 133 40q12 5 28 12t24 10t18.5 6t19 3t17.5 -3 q9 -6 88.5 -178t91.5 -203q11 -30 74.5 -161t82.5 -156q21 -26 25 -62.5t-5 -54.5q-5 -12 -13 -25.5t-14 -21.5l-6 -7q138 -261 156 -285l84 -135q1 -1 2 -2.5t4 -7.5t6 -11t7 -13t6.5 -14.5t6 -14.5t4.5 -12.5t1.5 -10t-1.5 -6.5q-25 -28 -145.5 -78.5t-186.5 -96.5 q-2 -1 -66.5 -59.5t-131.5 -104.5t-106 -46q-18 0 -80 95t-88 144q-8 15 -42.5 60t-65.5 83l-31 37q-6 -1 -16.5 -1t-40 2.5t-56.5 9t-58 23.5t-52 42q-29 34 -97 147.5t-91 158.5l-162 306q-2 4 -3.5 9.5t-3.5 20.5zM836 194l185 -301q194 158 255 184q28 12 88.5 41 t107.5 52l47 24l-194 333q-204 -117 -265 -159q-28 -19 -84 -62.5t-98 -77.5zM836 1659q2 8 13 12t29 4.5t34.5 -0.5t38.5 -3t32 -2h110q4 25 4 39q0 15 4 23t8.5 9.5t15 3.5t18.5 5q2 5 27 3t35 -3.5t36.5 -6.5t30.5 -6q16 -3 39 -5.5t39 -3.5h15q0 48 6 57q5 7 59.5 7.5 t88.5 -3.5q18 -2 60 -2t60 -5q14 -4 20 -22t5 -34l-2 -15q35 -15 111 -26q38 -6 63 -0.5t42.5 3.5t25.5 -20q8 -22 6 -39t-8 -28l-7 -11q-17 -237 -21 -265q-1 -9 -10 -160t-14 -185q-5 -39 -8.5 -54t-19.5 -43t-49 -69q-15 -18 -36.5 -30t-34.5 -15l-14 -3v-45v-375 q-12 -29 -26 -33q-15 -4 -63.5 75t-89.5 160l-41 81q5 9 11.5 23t14.5 45t2 47q-23 58 -44.5 108t-46.5 101.5t-35.5 73.5t-39.5 78t-32 62q-11 22 -40.5 82t-55 111.5t-54.5 106.5t-51 89.5t-32 39.5q-16 8 -67.5 -6t-95.5 -32l-43 -18l-12 44q-2 5 -4.5 13.5t-6 29 t-0.5 32.5z" />
<glyph unicode="&#xf38c;" d="M123 -160v1503q0 40 28 68t68 28h1043q40 0 68 -28t28 -68v-1503q0 -40 -28 -68t-68 -28h-1043q-40 0 -68 28t-28 68zM308 489q0 -30 6 -58.5t23 -65t57 -59t99 -22.5q47 0 85 12.5t57.5 30.5t32.5 36t17 31l4 12l13 -80l-112 -207h301l-113 207l13 79q1 -5 4 -13 t16.5 -29t33 -37t57.5 -29t85 -13q48 0 84 16t54.5 38.5t30 53t14 52.5t2.5 45q0 89 -121 223l-311 352q-238 -272 -310 -352q-122 -134 -122 -223zM684 1539l59 186q12 38 47.5 56t73.5 7l994 -315q38 -12 56.5 -47t6.5 -73l-453 -1434q-2 -10 -10 -21v1445 q0 81 -57.5 138.5t-138.5 57.5h-578z" />
<glyph unicode="&#xf38d;" d="M358 -256q-5 43 8 69q7 14 48 36.5t47 31.5q11 16 46.5 116t42.5 141q6 33 55 133.5t50 106.5q1 14 46.5 79.5t76.5 102.5q16 19 55 58.5t71 69.5l31 30q-6 67 -6 81q1 22 27.5 96t26.5 92q0 16 -7 49t-15.5 63t-8.5 33q-1 9 -17.5 22.5t-27.5 13.5q-24 0 -83 9t-69 22 q-9 13 -19 119t-12 109q-3 5 -7.5 20t-8.5 26.5t-8 11.5t-11 9t-13 18l-5 9q-51 -16 -57 -16q-5 1 -8.5 13t-0.5 17q2 3 14.5 7.5t24.5 7.5l11 3q-3 18 24 28q14 4 21 1t10 -9l2 -6l21 7q-12 18 11 29q18 8 26 7t14.5 -5t9.5 -3q7 1 184 47t197 53q9 3 87.5 46.5t90.5 43.5 q18 0 59.5 -39.5t35.5 -54.5q-7 -16 -33.5 -40.5t-35.5 -23.5q-7 1 -43 20.5t-40 20.5q-7 2 -16.5 0t-17.5 -5l-8 -3q-155 -29 -227 -46l-216 -54q11 -11 12 -20l1 -25l23 -23l90 -30q64 -25 73 -26q4 0 12 -6t14 -12l7 -6h50v37q3 18 18 30.5t45 12.5q56 0 75 -26t19 -66 q0 -18 -6.5 -40t-13.5 -35l-7 -13l-1 -31q0 -25 5 -30l13 -10q13 -10 24 -19.5t22.5 -20t12.5 -14.5q3 -9 1 -73.5t-6 -89.5q-2 -14 -14 -40.5t-22 -45.5l-11 -19q-2 -44 -2 -55q-1 -7 14.5 -57t16.5 -54q1 -6 -0.5 -20.5t-3.5 -25.5l-3 -11q78 -170 96 -208q8 -16 12 -63 t5 -86v-39q43 -37 58 -43q6 -3 7 -11.5t-1 -16.5l-3 -7q43 -31 60 -49q8 -8 17.5 -28.5t23.5 -56t14 -36.5l43 -133q35 -43 55 -58q9 -6 18 -25.5t13 -36.5l4 -16h-165q-3 29 0 64q1 15 8.5 31.5t13.5 25.5l7 9q-86 104 -121 133q-18 15 -51.5 84t-46.5 75q-12 5 -20.5 14 t-11.5 15l-3 6q-69 104 -118 138q-22 16 -49 50t-42 60l-16 26q-116 -63 -162 -110q-20 -20 -66.5 -52t-82.5 -53l-36 -22l-35 -138q-32 -41 -44 -73q-27 -64 -68 -127q-8 -12 -12 -46.5t-4 -63.5l1 -28l-46 -64h-163zM731 1540q10 -46 15 -55q6 -13 25 -60.5t19 -56.5 q1 -11 11 -52.5t12 -42.5q1 -1 40.5 -6t40.5 -5t32 -4.5t64 -8.5t40 -4t16.5 5.5t15.5 11.5l6 5l-16 29q-72 48 -81 49q-7 1 -54 25t-55 30q-5 3 -36.5 55.5t-38.5 53.5q-13 2 -22 11t-11 17l-3 8z" />
<glyph unicode="&#xf38e;" d="M138 -78q-19 95 53 179t193 108q98 19 185 -11v1358q0 25 16.5 41t33.5 19l17 4q1079 152 1184 169q31 5 50 1.5t28 -12t12.5 -18t3.5 -16.5l-1 -7v-1574q7 -90 -64.5 -166.5t-184.5 -98.5q-121 -24 -219.5 26t-117.5 145t53 179t193 108q106 21 197 -16v925l-1045 -144 v-1110q4 -88 -67 -163t-183 -97q-121 -24 -219.5 26t-117.5 145z" />
<glyph unicode="&#xf38f;" d="M0 -68v1672h78v-131q0 -9 5 -15.5t12 -6.5h153q7 0 12 6.5t5 15.5v131h142q35 -50 94 -48h1045q58 0 93 48h135v-130q0 -8 5 -14.5t12 -6.5h153q7 0 12 6.5t4 15.5v129h87v-1672h-85v147q0 8 -5 14.5t-12 6.5h-153q-7 0 -12 -6.5t-5 -15.5v-146h-131q-35 54 -97 52h-1045 q-64 0 -96 -52h-140v145q0 9 -5 15.5t-12 5.5h-153q-7 1 -12 -5.5t-5 -15.5v-145h-79zM78 1162q0 -9 5 -15.5t12 -5.5h153q7 -1 12 5.5t5 15.5v159q0 9 -5 15t-12 6h-153q-7 0 -12 -6t-5 -15v-159zM79 229q0 -21 17 -21h153q7 0 12 6t4 15v159q1 9 -4 15.5t-12 5.5h-153 q-17 0 -17 -21v-159zM79 540q0 -21 17 -21h153q7 0 12 6.5t5 14.5v159q0 9 -5 15t-12 6h-153q-17 0 -17 -21v-159zM79 851q0 -9 5 -15.5t12 -5.5h153q7 0 12 6.5t5 14.5v159q0 9 -5 15t-13 6h-153q-16 0 -16 -21v-159zM387 346q0 -48 34 -81.5t81 -32.5h1045q47 0 81 34 t33 81v847q0 48 -34 81.5t-81 32.5h-1045q-47 0 -81 -33.5t-33 -81.5v-847zM1774 231q0 -9 5.5 -15.5t12.5 -6.5h153q16 2 16 22v158q0 9 -4.5 15.5t-11.5 6.5h-153q-7 0 -12.5 -6.5t-5.5 -15.5v-158zM1774 541q0 -8 5 -14.5t12 -6.5h153q17 0 17 22v158q0 22 -17 22h-153 q-7 0 -12 -6.5t-5 -15.5v-159zM1774 853q0 -9 5 -15.5t12 -6.5h153q17 0 17 22v159q0 8 -5 14.5t-12 5.5h-153q-7 1 -12 -5.5t-5 -15.5v-158zM1774 1163q0 -8 5 -14.5t12 -6.5h153q7 0 12 6.5t5 15.5v158q0 9 -5 15.5t-12 6.5h-153q-7 0 -12 -6.5t-5 -15.5v-159z" />
<glyph unicode="&#xf390;" d="M0 768q0 209 81 398.5t218 326.5t326.5 218t398.5 81t398.5 -81t326.5 -218t218 -326.5t81 -398.5t-81 -398.5t-218 -326.5t-326.5 -218t-398.5 -81t-398.5 81t-326.5 218t-218 326.5t-81 398.5zM54.5 593q-1.5 -14 2 -40t11 -58t22.5 -74.5t35 -85.5q31 -69 83.5 -142 t91.5 -114t47 -39q6 1 9.5 10t7 29t3.5 21q14 59 24 82q3 9 -18 42.5t-54 80.5t-47 73q-23 44 -72 191q-1 4 -11 7.5t-34 9t-27 6.5q-15 4 -31 9.5t-23.5 7.5t-12.5 0t-6.5 -16zM353 1147q0 -52 6.5 -115.5t16.5 -81.5q4 -6 35.5 -10t90.5 -8t74 -5q57 -4 118.5 -4.5 t83.5 4.5q9 4 31 40.5t50 87.5t35 63q5 8 21 34t30 48.5t29 47.5t23.5 43t8.5 24t-8.5 16.5t-23.5 24.5t-29 26.5t-34 29t-29 24.5q-8 7 -28 25t-34 30.5t-30.5 26.5t-27.5 21t-16 7q-14 0 -70.5 -25.5t-131.5 -67.5q-69 -39 -117 -78t-62 -57q-12 -15 -12 -171zM798 129 q2 -4 22.5 -24.5t57.5 -52.5t76 -61q37 -28 96.5 -59t74.5 -31t97.5 32t121.5 53q54 30 108.5 65.5t62.5 46.5q7 25 3 81.5t-11 106.5q-7 43 -22 106.5t-25 69.5q-6 4 -46 5t-85.5 0.5t-85.5 0.5q-44 1 -101.5 4.5t-91 5.5t-41.5 1q-3 0 -6.5 -3t-8 -8.5t-9 -11.5 t-11.5 -16.5t-12.5 -19t-14 -23t-14.5 -24.5t-16 -27.5t-17 -28.5q-16 -27 -35.5 -57t-31 -47t-21.5 -34.5t-13.5 -29t-0.5 -20.5zM1492 1274q1 -11 21 -41t48.5 -72t42.5 -68q27 -49 51 -102.5t37 -84.5t20 -39q11 -14 137 -14q16 0 43.5 -1.5t41.5 -2.5t26 0q10 8 7 75 t-14 130q-5 28 -15 62.5t-18.5 58t-18.5 48t-10 25.5q-4 12 -41.5 52.5t-77.5 77.5q-38 36 -90 70.5t-63 30.5q-6 -2 -14 -14t-20 -35t-21 -37q-8 -13 -29.5 -41.5t-32.5 -47.5t-10 -30z" />
<glyph unicode="&#xf391;" d="M266 -172q0 -13 10 -34t20 -36l10 -14l28 20v43l3 37l11 22q7 20 13 21q9 3 24 16q3 3 5.5 9.5t3.5 11.5l1 5l22 4l25 7l-14 43q84 55 107 76q16 15 127 65t147 62q122 39 137 47q20 10 41 55q16 31 118 138q32 34 53.5 75t27.5 65l6 25q92 -42 147 -51q24 -4 86 -7 t111 -3l50 -1l3 -13q-28 -40 -36 -106q-4 -31 -7.5 -92t-11 -106t-26.5 -101q-2 -7 -7 -14t-9 -11l-4 -4q-23 -2 -28 -9q0 -1 -6 -9t-10 -14.5t-8.5 -18t-5.5 -21.5q-2 -11 5.5 -26t16.5 -19q5 -3 44.5 -26t53.5 -30q7 -4 26 -13.5t37.5 -18.5t36.5 -16t43 -7t41 3l15 3 q2 2 4 5.5t4.5 14t-5.5 17.5q-18 22 -64 27q-27 9 -28 26l-15 78l-19 5l-3 38l-33 -1q3 48 14 81q8 27 59 141.5t69 142.5q18 26 35 94t15 89q-1 10 -10 18t-21.5 14.5t-15.5 9.5q-9 9 -103 59.5t-131 65.5q-24 9 -70 20.5t-81 18.5l-34 7q10 40 16 57q3 9 9 55t8 51l23 88 q16 -1 35 -19q9 -8 21.5 -13.5t21.5 -6.5l8 -1q40 59 65 90q9 11 21.5 43t22 62.5t18.5 60.5t10 32q2 6 14 23t23 31l11 15q13 33 18 47q4 10 17 25.5t21 18.5t7 18.5t-7 24.5q-4 5 -9.5 8t-9.5 4l-4 1q-4 14 -8 23q-2 4 -6 6t-7 2h-3q-15 18 -25 18q-4 0 -5.5 -9.5 t-1.5 -18.5l1 -9l-14 -18h-8v50q0 3 -3.5 8.5t-7.5 9.5l-4 4l-21 -9l11 -21v-50l-16 -24l-12 -4q-37 35 -47 46q-4 4 -12 4.5t-14 -1.5l-6 -2q9 -11 18 -15q4 -1 11 -10.5t12 -18.5l4 -9q-4 -21 2 -31q5 -7 15.5 -44.5t8.5 -43.5q-38 -85 -59 -113l-43 -62q-8 59 -13 77 q-2 8 -11 21.5t-16 22.5l-8 9q-6 43 -6 58q0 8 -11 20.5t-13 17.5q-1 5 -9 13t-15 13l-7 5l10 19q67 3 74 9q6 4 6 28q0 4 7 5.5t9 5.5t1 7t-2 5l-2 1l12 7l-3 30q9 11 11 19q1 4 -4 13t-10 16l-6 7l-2 6l8 26q4 55 -36 90q-29 26 -73.5 34t-85.5 -5q-25 -8 -42 -34.5 t-22 -46t-5 -27.5q0 -4 8 -28t8 -27q0 -9 -8 -49q0 -4 -6.5 -15.5t-13.5 -20.5l-6 -10q-12 -8 -27 -15q-7 -3 -13 -10t-8 -13l-3 -5q-19 -8 -36 -9q-7 0 -22 -13t-27 -26t-13 -13q-9 0 -47 -3.5t-46 -7.5l-151 -92q-21 -99 -21 -121q0 -20 6 -96.5t9 -86.5q2 -6 4 -31.5 t3 -47.5l1 -22q-25 -34 -32 -42q-3 -4 -7 -15.5t-6 -21.5l-2 -10q-24 -15 -28 -22q-1 -3 -12 -10t-21 -12l-10 -5q-1 -1 -2 -3.5t-3 -8.5t0 -9q2 -4 5.5 -4t6.5 2l3 2l32 19l37 10l-5 -14l-38 -43q-2 -3 -5 -6.5t-7.5 -13.5t0.5 -13q5 -4 9 -3t6 5l3 3l29 37l38 28 q-16 -26 -20 -32l-22 -33q-1 -3 -3 -7.5t-4 -15.5t3 -13q5 -3 10.5 0t9.5 8l3 5q24 32 28 38l34 41q-3 -41 -7 -55q-3 -12 0 -32.5t11 -21.5q7 -1 15.5 29.5t8.5 41.5q0 9 16.5 51t22.5 41q4 -1 10 -9t11.5 -18.5t7.5 -13.5q5 -6 26 -6t25 6q2 2 0 5t-7 6t-9.5 5.5t-10 5 t-7.5 3.5q-4 2 -8.5 10t-9 19t-6.5 15l-32 47q1 174 1 191q0 8 3 20t8 28.5t7 24.5l19 93q51 7 67 7q7 0 24.5 7.5t32.5 14.5l14 8q-1 -75 3 -102q2 -15 22 -65.5t21 -61.5t-3 -38t-8 -49l-4 -21q-4 -3 -11 -9t-25.5 -23.5t-32 -35t-25 -40.5t-11.5 -43l6 -122 q-61 -111 -74 -129q-6 -8 -20 -55t-25 -90l-11 -43q-151 -60 -181 -75q-10 -6 -30 -32.5t-47 -34.5q-21 -7 -62 -38.5t-71 -59.5l-30 -28q-11 4 -28 9.5t-51 4.5t-47 -22q-8 -12 -3 -127q1 -11 -5.5 -58.5t-6.5 -61.5z" />
<glyph unicode="&#xf392;" d="M14 595.5q-34 197.5 11.5 399.5t168.5 373q186 257 480 362.5t592 32.5q-641 -703 -1111 -1536q-107 171 -141 368.5zM197 163q488 850 1143 1579q14 -4 32 -11q-643 -751 -1153 -1596q-2 2 -22 28zM266 80q529 859 1174 1624q10 -4 30 -14q-636 -792 -1181 -1635 q-16 16 -23 25zM339 7q564 853 1193 1650q40 -23 68 -43q-609 -837 -1198 -1659q-27 20 -63 52zM448 -78q608 836 1198 1659q27 -20 63 -52q-564 -853 -1193 -1650q-40 23 -68 43zM578 -154q636 792 1181 1635q16 -16 23 -25q-529 -859 -1174 -1624q-5 3 -15 7.5t-15 6.5z M675 -195q643 749 1154 1596q2 -2 22 -28q-488 -850 -1143 -1579q-11 3 -33 11zM781 -227q643 706 1112 1536q107 -171 141 -368.5t-11.5 -399.5t-168.5 -373q-186 -257 -480 -362.5t-593 -32.5z" />
<glyph unicode="&#xf393;" d="M3 798q0 332 183 602.5t478 384.5q-4 -2 -12 -8q-110 -78 -204.5 -179.5t-156.5 -208.5q-16 -28 -33.5 -66.5t-41.5 -104.5t-39.5 -154t-15.5 -178q0 -209 91 -377q107 -200 330 -314q158 -81 295 -81q140 0 274 85q51 32 107 81.5t92.5 87t99.5 105.5l27 28 q100 109 181 185t172 136q95 62 152 62q31 -1 51 -20q7 -7 11 -12q1 -18 1 -54q0 -214 -81 -409t-218 -336.5t-326 -225t-396 -83.5t-396 83.5t-326 225t-218 336.5t-81 409zM348 886q-1 110 29.5 220.5t73.5 183.5q52 89 133 176t173 152q248 174 523 174h13 q265 -76 457 -285q171 -188 236 -431h-3h-1q-114 0 -252 -92q-77 -52 -158 -123t-125 -116.5t-123 -129.5q-44 -47 -84 -90q-111 -114 -186 -162q-89 -56 -178 -56q-93 0 -210 60q-172 89 -251 236q-67 121 -67 283z" />
<glyph unicode="&#xf394;" d="M0 673q0 27 15.5 61t15.5 47q1 33 4 57t6 32l3 7q30 -19 30 -53q0 -32 -13 -83t-14 -63q-2 -18 39.5 -46t72.5 -29q29 -1 65 30.5t47 62.5q1 4 11.5 34.5t20 55t22.5 56.5t27 56.5t26 36.5l54 47q0 9 2.5 25t25.5 62.5t65 89.5q30 31 119.5 49t152.5 17q54 -1 102.5 -10 t72.5 -17.5t60 -24.5t42 -18q73 -28 188 -41t145 -4q44 14 76.5 32.5t43.5 29.5l11 11q-3 0 -7 1t-10.5 6t-4.5 13t11.5 24.5t21 33.5t12.5 19q4 8 19.5 15.5t24.5 4.5l45 -25q60 23 98 24q24 1 54.5 -10t56.5 -24.5t32 -14.5t45 -1q111 1 112 -16q0 -1 -1 -3q-1 -4 -7 -24 t-9.5 -29t-14 -18.5t-24.5 -9.5q-19 0 -57 -2t-67.5 -5t-27.5 -4q2 -2 13 -7t29 -11t32 -7q9 -1 32 -2t34.5 -3.5t11.5 -9.5q0 -13 -49 -28t-79 -8q-101 22 -129 5q-14 -8 -110.5 -95.5t-110.5 -104.5q-2 -2 -23 -26.5t-43 -49t-48.5 -52.5t-48.5 -47.5t-34 -23.5 q-16 -6 -47 -13t-50.5 -12t-18.5 -8l48 -153q2 -5 4.5 -12t7 -25.5t-0.5 -23.5q-3 -8 -16 -21.5t-24 -23.5l-12 -9l-173 -6q33 -25 53 -34l117 -37q-3 -46 -74 -39q-24 2 -49.5 15t-51 31t-31.5 21q-12 6 -25.5 8.5t-20.5 1.5l-7 -1q2 -2 4.5 -6t6.5 -12.5t1.5 -14 t-12.5 -5.5q-14 0 -26 8.5t-24.5 22t-19.5 18.5l-32 19q-73 -29 -104 -52q-3 -3 -11.5 -9t-15 -10.5t-15.5 -11.5t-17 -12t-17 -10.5t-16 -9t-14 -5.5t-12 -1.5t-8 3.5q-13 14 -6 44.5t24 37.5q4 1 28.5 9t44 14.5t39.5 15t25 15.5l38 50q-75 54 -94 66l-81 46q-2 23 20 40 t51.5 48.5t29.5 42.5q0 8 -4.5 21.5t-8.5 22.5l-4 10q-122 5 -181 45q-26 18 -48.5 57t-31.5 69l-9 30q-73 -63 -83 -92q-1 -3 -12 -38.5t-21 -64t-25 -63t-28 -50.5q-26 -32 -66 -44t-76 -2q-47 11 -91 39t-44 65zM722 540l96 -64q-5 31 -12 73q-4 18 -11 36t-12 27l-5 8z M860 591l38 -83q45 52 67 91q9 17 24 40t25 37l10 14q-46 49 -77 66q-14 8 -36 12.5t-37 5.5h-14q-20 -137 0 -183zM923 1010q2 -78 15 -95q33 -43 128 -81.5t171 -39.5q58 -3 88.5 13.5t49.5 50.5q9 18 -0.5 77t-23.5 109l-14 50q-45 -13 -199 26q-54 14 -120 42.5 t-90 35.5q-2 -27 -4.5 -68.5t-0.5 -119.5zM938 418q5 -3 15 -7t39.5 -10.5t58.5 -5.5t59.5 8t45.5 14l16 7q-7 74 -14 101q-4 18 -22 45.5t-23 28.5q-113 -86 -141 -117q-12 -14 -20.5 -30t-11.5 -25zM1342 803l56 -54l31 32l-55 60z" />
<glyph unicode="&#xf395;" d="M4 706.5q10 159.5 44 186.5q32 24 92 24q17 0 59 -2.5t66 -2.5h6q40 0 82.5 3t64.5 7l23 3q89 76 195 168q98 84 339 268q137 103 237 141q62 22 118 22q90 0 148 -54q55 -52 83 -113.5t27 -111.5q0 -88 -88 -129q-21 -10 -59.5 -29.5t-82.5 -39.5q-1 -1 -15.5 -8 t-22 -11.5t-23.5 -14.5t-28 -20.5t-28 -25.5t-31.5 -34.5t-29.5 -42.5l-2 -2q77 60 149 67q38 5 76 -5q47 -11 80 18q12 11 23.5 35t20.5 43t39.5 37.5t79.5 24.5q105 13 184 -21.5t127 -102.5q53 -75 76.5 -158t9.5 -191q-18 -131 -85.5 -265t-181.5 -224 q-168 -134 -432 -134q-57 0 -119 7q-71 7 -132 16t-103 18t-69 15.5t-52 14t-29 8.5q-17 4 -72 28.5t-101 46.5l-46 22q-86 -24 -139 -31q-59 -8 -121 -8q-65 0 -111 7q-6 1 -44 10.5t-60 9.5q-8 0 -24 -2q-28 -6 -40 -6q-45 0 -56 54q-7 33 -12 67t-6 51l-2 18 q-12 189 -2 348.5zM188 512q3 -95 10 -151.5t12.5 -73.5t17.5 -43q9 -3 24.5 -7t62.5 -10t93 -5t85 10.5t55 17.5l15 9q-27 66 -32.5 90t-22.5 149q-10 80 -9 140t7 96l5 35h-312q-2 -13 -4.5 -36t-5.5 -90.5t-1 -130.5zM261 515q-3 95 5 181h162q-8 -105 7 -209l6 -41 q15 -108 26 -144q-31 -6 -61 -7h-16q-53 0 -108 11q-15 48 -21 209z" />
<glyph unicode="&#xf396;" d="M442 1210q0 -119 46 -226.5t124 -185.5t186 -124t226 -46q158 0 292 78t212 212t78 292q0 118 -46 226t-124 186t-185.5 124t-226.5 46q-158 0 -292 -78t-212 -212t-78 -292zM798 517h452l-124 -345v-428h-204v428z" />
<glyph unicode="&#xf397;" d="M5 502q26 245 167 483.5t364 416.5q112 90 227 153t218 94t186 44t162 13q235 0 415 -100q139 -76 216 -191.5t87 -260.5q9 -133 -38.5 -282.5t-133.5 -285.5t-195.5 -256t-229.5 -210q-389 -290 -791 -290q-175 0 -319 59t-232 166q-64 79 -90.5 194t-12.5 253zM96 493 q-20 -180 38 -308q16 63 48 138.5t94 185.5t172.5 254.5t256.5 300.5q-32 17 -83 38q-18 7 -26 24t-1 35q7 17 24 25.5t35 1.5q72 -27 116 -56q24 24 36 37q18 18 27 26q-44 24 -87 43q-17 7 -24 25t1 35q7 18 25.5 25t35.5 -1q102 -51 118 -61q21 19 63 55q-45 19 -83 29 q-19 5 -28 21.5t-4 34.5t21 27.5t35 4.5q87 -23 136 -56q26 20 38 29q-34 12 -81 20q-19 3 -30 18.5t-8 34.5q4 19 19.5 29.5t33.5 7.5q49 -9 82 -19q-16 16 -13 40q4 19 19.5 30t33.5 7q15 -2 53 -11q-2 5 0 11q1 20 18 32q-321 -40 -614 -275q-209 -167 -341 -389.5 t-156 -448.5zM171 134q35 -32 77 -58t113 -50.5t152 -34t197 0.5t245 44q143 38 270.5 100t220.5 131t173.5 152.5t133 156t96.5 151.5q119 230 106 421q-17 246 -255 378q-57 32 -130 54q-61 -9 -137 -36q60 -48 90 -97q10 -17 5 -35t-22 -28q-10 -6 -22 -6q-27 0 -40 23 q0 2 -9.5 14t-34.5 36t-57 45q-3 2 -11 6q-2 -1 -5.5 -2.5t-5.5 -2.5q65 -59 94 -102q11 -15 8.5 -33.5t-17.5 -30.5q-12 -9 -28 -9q-22 0 -36 18l-3 4q-3 4 -8 10t-12 14t-16 18t-19 20t-21.5 20.5t-22.5 19.5q-1 0 -3 1.5t-4 2.5q-4 -3 -13 -8t-14 -8q23 -22 47.5 -49.5 t36.5 -42.5t15 -19q11 -15 8.5 -34t-17.5 -30q-12 -9 -28 -9q-22 0 -36 18l-15 18q-15 19 -41 47.5t-49 48.5q-16 -11 -48 -35q24 -21 48.5 -48t36.5 -41.5t14 -17.5q11 -15 9 -34t-17 -30q-13 -10 -28 -10q-24 0 -37 18q0 1 -13.5 17.5t-38 42.5t-47.5 46q-33 -27 -66 -57 q17 -14 34.5 -31t32 -32t26 -27t19.5 -21l7 -8q12 -14 10.5 -33t-15.5 -32q-14 -11 -30 -11q-21 0 -35 16q0 1 -17 19.5t-46 47.5t-54 49l-33 -33q-5 -6 -16 -17.5t-17 -16.5q27 -23 108 -104q13 -14 12 -33t-15 -32q-13 -12 -31 -12q-20 0 -33 15q-78 78 -104 100 q-130 -138 -232 -269.5t-161 -226t-100 -181.5t-56.5 -136t-22.5 -90zM387 -31q121 -47 272 -47q285 0 582 170q-131 -61 -275 -100q-193 -51 -355 -51q-120 0 -224 28zM1142 1480q23 -13 26 -15l9 6q-24 6 -35 9zM1266 1612q80 -12 120 -35q42 17 78 27q-63 10 -135 10 q-19 0 -63 -2z" />
<glyph unicode="&#xf398;" d="M30 416q1 -1 1 -2q2 -4 2 -6v-10q2 -42 4 -61q1 -17 5 -46q2 -25 10 -68q12 -58 20 -86q18 -66 48 -129q13 -28 32 -56q6 -10 10 -15q25 -36 61 -64q40 -30 91 -54q48 -22 109 -38q48 -12 84 -17q6 -1 19 -2.5t19 -2.5q16 -2 48 -4q6 0 9 -1h100q2 1 6 1q6 1 17.5 2 t17.5 1q11 1 35 3q14 1 37 5q18 1 38 6q24 4 70 14q75 17 169 51q155 60 296 152q130 87 243 198q79 78 147 168q100 136 161 289q38 99 58 190q9 40 15 79q1 9 3 26t3 26q3 18 3 36v9l2 4v145q-1 1 -1 3t-1 3v5q0 15 -4 45l-6 48q-11 58 -17 82q-18 69 -46 134 q-24 55 -58 103q-17 25 -41 51q-26 29 -62 51q-38 22 -74 36q-37 15 -92 29q-17 4 -64 13q-7 1 -23.5 3.5t-25.5 3.5q-15 2 -47 4q-8 1 -16 1.5t-18 1t-15 0.5q-7 0 -9 2h-75q-2 -1 -6 -1q-3 -1 -9 -1l-48 -3q-9 -1 -25.5 -2.5t-24.5 -1.5q-6 -1 -19 -2.5t-19 -2.5l-39 -6 q-15 -2 -56 -11q-56 -11 -139 -36q-148 -49 -270 -122q-283 -169 -450 -447q-77 -127 -124 -272q-24 -75 -38 -144q-7 -33 -12 -69q-3 -16 -7 -48q-1 -8 -2.5 -23.5t-2.5 -23.5q-1 -12 -3 -38q0 -5 -0.5 -16.5t-0.5 -17.5t-1 -9q0 -1 -1 -1l-1 -2v-62zM186 359v2q1 1 2 1h2 l2 -1q113 -41 206 -98q30 -19 61 -43q2 -1 5 -4q2 -2 0 -2q-1 -3 -4 -4q-1 -1 -46 -43q-22 -20 -65.5 -61t-65.5 -61l-2 -2q-7 -3 -10 1l-2 3q-16 29 -34 73q-15 40 -29 98q-5 24 -13 72q-6 55 -6 59q0 1 -0.5 5t-0.5 5zM190 580q0 5 2 15q0 6 1.5 17.5t2.5 17.5q4 30 12 64 q10 50 33 126q67 212 210 385q152 182 363 290q117 60 246 93q52 13 94 20q12 3 43 7q4 1 10 -1q27 -10 46 -19q87 -35 171 -78q68 -35 117 -68q33 -21 59 -42l6 -6q3 -2 1 -6q-2 -2 -3 -4q-70 -94 -107 -140q-6 -7 -8 -5l-4 4q-11 11 -33.5 32t-34.5 31q-1 1 -3.5 3t-3.5 3 h-3l-2 -2l-39 -42q0 -1 -2 -3q1 -3 5 -5q21 -21 44 -41q10 -10 30 -28l4 -4q3 -2 0 -5q0 -1 -2 -3q-36 -42 -53 -64l-3 -3q-3 -3 -5 0q-4 4 -6 5q-11 11 -33.5 32t-34.5 31q-5 5 -8 7q-1 0 -3 -2q-3 -4 -9.5 -11t-10.5 -10q-12 -14 -19 -21l-3 -3q0 -2 1 -2q1 -2 4 -5 q9 -9 28 -26.5t29 -25.5q12 -12 19 -18l3 -3q1 -1 0 -3q-1 0 -1 -1t-1 -2q-2 -2 -27 -29.5t-38 -41.5q-2 -3 -3 -3q-2 0 -4 2q-3 3 -9.5 8.5t-9.5 8.5q-10 10 -31 29t-31 28q-6 5 -7 6q-4 -3 -41 -43q0 -1 -1 -2.5t-2 -2.5l-1 -1q4 -4 7 -6q12 -12 37.5 -35.5t38.5 -35.5 q2 -1 5 -4q0 -1 1 -1l1 -2l-3 -3q-38 -40 -57 -59l-3 -3h-3l-5 5q-50 46 -74 69q-1 1 -4 3t-4 3q-3 -1 -4 -4q-19 -19 -28 -29q-2 -3 -6 -7.5t-6 -6.5q-1 -2 0 -3l7 -7q48 -44 71 -66q6 -5 4 -8q0 -1 -3 -4q-1 -1 -24.5 -23t-34.5 -33q-2 -1 -4 -3q-1 -1 -3 0q-1 1 -3 2.5 t-3 2.5q-11 11 -34 32.5t-35 31.5l-6 6q-2 2 -4 0q0 -1 -2 -3q-1 -1 -37 -40q-3 -3 -3 -5q1 -2 5 -6q23 -21 67 -61q7 -7 7 -8t-7 -7q-8 -8 -24.5 -23.5t-24.5 -23.5q-1 -1 -2.5 -2t-2.5 -2h-2q-4 4 -6 5q-23 22 -71 66q-4 4 -7 6h-1h-1l-1 -1q-20 -23 -41 -44q0 -1 -1 -3 q0 -2 4 -4l21 -21q8 -7 25 -22t25 -23l5 -5v-3q-4 -4 -7 -6q-76 -72 -115 -108q-131 -122 -134 -125q-4 -6 -8 -7l-2 1q-2 1 -2 2q-80 70 -192 127q-101 52 -220 88q-3 0 -7 2q-3 2 -3 4zM328 -16l3 3q4 4 7 6l174 162l6 6q4 2 6 0q10 -10 30 -37q33 -44 61 -103 q26 -54 42 -107q1 -1 1.5 -3.5t0.5 -3.5q0 -3 -2 -3h-4h-24q-17 1 -49 3q-7 1 -21 2.5t-20 1.5q-83 11 -148 39q-29 12 -56 28q-1 1 -3.5 2.5t-3.5 3.5zM670 300v2l5 5q58 54 86 81q28 26 84 78.5t84 78.5l7 7q3 -1 7 -5q11 -10 32.5 -30t32.5 -30q1 -1 3.5 -3t3.5 -3t3 0 q2 2 3 4q12 12 36 38q1 1 3 4q2 1 0 3l-6 6q-10 9 -30 27.5t-30 27.5l-6 6q-2 2 0 4l3 3q8 8 25.5 24.5t26.5 24.5l2 2t2 1q1 2 3 0q2 -1 6 -5q22 -21 66 -61q5 -5 6.5 -5t6.5 5q22 24 34 37q3 3 4 5q-1 4 -5 6q-19 19 -40 37q-4 4 -12.5 12t-12.5 12l-4 4q-1 1 0 3l3 3 q21 20 61 58q1 1 3 2l1 1q3 0 5 -4q8 -7 24 -21.5t24 -21.5q11 -11 17 -16l4 -4h3q0 1 0.5 1t0.5 1q1 1 40 43l2 2q0 2 -1 2q-1 1 -2 2.5t-2 2.5t-2 1q-38 36 -57 53l-6 6q-1 1 0 3l3 3q38 40 56 58q0 1 0.5 1t0.5 1q3 3 5 0q1 -1 3.5 -3t3.5 -3q34 -32 52 -48q1 -1 3.5 -3 t3.5 -3q2 -2 5 -1q1 0 1 1t1 2t15.5 16.5t21.5 23.5q2 2 2 3q2 2 0 2q-2 5 -6 6q-1 1 -55 52q-4 4 -6 5v2l2 2t1 2q12 13 23 26q7 7 20 21.5t19 21.5l5 5q3 0 6 -3q16 -14 24 -22q6 -6 18.5 -18t19.5 -18q3 -3 7 -5q2 -1 3 0q1 0 1 0.5t1 0.5q26 28 39 43q1 1 1 2q1 1 0 3 l-6 6q-40 36 -59 54q-1 1 -3.5 3t-3.5 3q-3 4 0 7l3 3q19 24 52 62q1 2 4 5q4 0 5 -3q13 -11 41 -37q18 -16 25 -23q3 -3 5 -4q2 0 2 1l42 45l1 2q-3 4 -7 7q-10 9 -31 29t-32 29l-6 6q-2 2 0 4q1 1 2.5 3t2.5 3q70 90 103 136q3 4 4 5t3 1t2.5 -1t4.5 -5q37 -43 62 -82 q44 -65 82 -146q29 -60 51 -123q0 -3 2 -5v-6q-2 -23 -10 -69q-10 -61 -34 -137q-42 -131 -119 -254q-64 -102 -152 -193q-122 -126 -269 -221q-125 -78 -246 -123q-83 -31 -172 -51q-21 -4 -29 -5q0 -1 -2 -1q-1 0 -3 2q0 2 -2 8q-20 89 -51 172q-28 71 -56 120 q-22 38 -50 74zM1514 1616h3l33 -6q44 -8 77 -19q39 -12 65 -26q3 -2 9 -5.5t9 -4.5q2 -2 3 -2q3 -3 1 -4q-12 -18 -19 -28q0 -1 -1 -1t-2 1q-1 0 -3 2q-27 20 -85 52q-47 23 -81 36q-1 1 -3.5 2t-3.5 1zM1750 1467q6 10 16 24l2 2q4 -4 5 -6q17 -26 31 -55q24 -49 40 -109 q0 -2 1 -6.5t2 -6.5v-3l-2 2q-1 2 -3 8q-25 51 -46 85q-20 32 -42 60q-3 3 -4 5z" />
<glyph unicode="&#xf399;" d="M4 390q0 246 112.5 501.5t317.5 475.5q176 189 403.5 299.5t465.5 123.5q38 2 56 2q147 0 273.5 -42t215.5 -120q22 -20 30 -28q108 -113 147 -279q19 -85 19 -183q0 -245 -120 -501t-332 -462q-260 -254 -573 -364q-193 -69 -376 -69q-306 0 -481 184q-76 79 -117 198.5 t-41 263.5zM205 552q2 -81 9.5 -140t17 -92.5t23 -53t25 -25t26.5 -5.5q27 0 92 25q13 5 41 15q102 34 331 156.5t447 288.5l3 3q65 49 103 79t107.5 89.5t113.5 105.5t100 114.5t89 130t57 137.5t27 151l-6 6q-76 78 -193 120t-260 42q-159 0 -322 -52.5t-308 -150.5 q-78 -61 -151 -135.5t-143 -169.5t-121 -195t-81 -216t-27 -228zM558 -106q35 -42 188 -51q200 23 404.5 128t376.5 272q199 194 311.5 432t112.5 465q0 22 -2 62q-82 -111 -189.5 -225.5t-166.5 -169t-153 -138.5q-34 -30 -48 -43q-186 -166 -612 -516l-37 -30 q-180 -148 -185 -186z" />
<glyph unicode="&#xf39a;" d="M369 1228q17 151 75 271q104 212 295 274q172 55 379 -44q161 -78 292 -231.5t208 -355.5q68 -175 68 -358.5t-68 -344.5q-7 -17 -17 -38q-68 -142 -179 -225q75 -76 120 -135q76 -102 123 -225q-3 -3 -10 -7t-39 -15.5t-75 -20.5t-124.5 -17.5t-181.5 -10.5 q-111 -3 -202.5 3.5t-142.5 17.5t-86 22.5t-47 19.5l-12 8q39 87 81 157q24 40 56 78t52 57l20 18q-40 17 -44 19q-161 79 -290 238t-196 361q-83 246 -55 484zM438 1220q-24 -222 52 -454q63 -190 182.5 -337.5t268.5 -220.5q13 -7 53 -23q48 -15 63 -19q115 -26 213 7 q22 8 26 10q41 16 87 51q96 76 155 198q2 4 7.5 15.5t8.5 18.5q62 148 61.5 318t-62.5 333q-73 189 -195 332.5t-271 216.5q-181 88 -327 40q-162 -52 -253 -238q-52 -109 -69 -248zM495.5 1094q-3.5 155 41.5 283q22 40 43 64t29.5 29t13.5 6q23 -15 59 -167l7 -31 q78 -335 133 -523q4 -19 12 -42q78 -285 173 -465q-26 10 -38 17q-138 67 -249.5 205t-169.5 316q-51 153 -54.5 308zM883.5 1314q0.5 82 6.5 122q2 20 3 29q4 47 12 63q28 56 221 -32q85 -39 158.5 -108.5t124 -153t84.5 -167.5t51 -166q34 -243 -63 -442 q-53 -110 -133 -173q-47 -37 -98 -53q-4 -2 -5 -2q-79 41 -138 121q-50 65 -88.5 162t-53.5 158.5t-34 157.5v3q-26 126 -37 262.5t-10.5 218.5z" />
<glyph unicode="&#xf39b;" d="M0 55q0 -81 57.5 -138.5t138.5 -57.5t138.5 57.5t57.5 138.5t-57.5 138.5t-138.5 57.5t-138.5 -57.5t-57.5 -138.5zM203 411q0 -81 57.5 -138.5t138.5 -57.5q82 0 139 57.5t57 138.5q0 82 -57 139.5t-139 57.5q-81 0 -138.5 -57.5t-57.5 -139.5zM407 768q0 -81 57 -138.5 t139 -57.5q81 0 138.5 57.5t57.5 138.5t-57.5 138.5t-138.5 57.5q-82 0 -139 -57.5t-57 -138.5zM414 55q0 -81 57.5 -138.5t138.5 -57.5t138.5 57.5t57.5 138.5t-57.5 138.5t-138.5 57.5t-138.5 -57.5t-57.5 -138.5zM610 1124q0 -81 57.5 -138.5t138.5 -57.5t138.5 57.5 t57.5 138.5q0 82 -57.5 139.5t-138.5 57.5t-138.5 -57.5t-57.5 -139.5zM615 411q0 -81 57 -138.5t139 -57.5q81 0 138.5 57.5t57.5 138.5q0 82 -57.5 139.5t-138.5 57.5q-82 0 -139 -57.5t-57 -139.5zM819 1481q0 -81 57 -138.5t139 -57.5q81 0 138.5 57.5t57.5 138.5 t-57.5 138.5t-138.5 57.5q-82 0 -139 -57.5t-57 -138.5zM824 768q0 -81 57.5 -138.5t138.5 -57.5t138.5 57.5t57.5 138.5t-57.5 138.5t-138.5 57.5t-138.5 -57.5t-57.5 -138.5zM828 55q0 -81 57.5 -138.5t138.5 -57.5t138.5 57.5t57.5 138.5t-57.5 138.5t-138.5 57.5 t-138.5 -57.5t-57.5 -138.5zM1026 411q0 -81 57.5 -138.5t138.5 -57.5t138.5 57.5t57.5 138.5q0 82 -57.5 139.5t-138.5 57.5t-138.5 -57.5t-57.5 -139.5zM1027 1124q0 -81 57.5 -138.5t138.5 -57.5q82 0 139 57.5t57 138.5q0 82 -57 139.5t-139 57.5q-81 0 -138.5 -57.5 t-57.5 -139.5zM1241 768q0 -81 57.5 -138.5t138.5 -57.5t138.5 57.5t57.5 138.5t-57.5 138.5t-138.5 57.5t-138.5 -57.5t-57.5 -138.5zM1242 55q0 -81 57.5 -138.5t138.5 -57.5t138.5 57.5t57.5 138.5t-57.5 138.5t-138.5 57.5t-138.5 -57.5t-57.5 -138.5zM1437 411 q0 -81 57.5 -138.5t138.5 -57.5q82 0 139 57.5t57 138.5q0 82 -57 139.5t-139 57.5q-81 0 -138.5 -57.5t-57.5 -139.5zM1656 55q0 -81 57.5 -138.5t138.5 -57.5t138.5 57.5t57.5 138.5t-57.5 138.5t-138.5 57.5t-138.5 -57.5t-57.5 -138.5z" />
<glyph unicode="&#xf39c;" d="M-3 768q0 209 81.5 399t219 327.5t327.5 218.5t399 81q167 0 324 -51.5t283 -146.5t221 -221t146.5 -283t51.5 -324t-51.5 -324t-146.5 -283t-221 -221t-283 -146.5t-324 -51.5q-209 0 -399 81t-327.5 218.5t-219 327.5t-81.5 399zM315 1335q32 -21 53 -40q14 -12 32 -44 l2 -4q3 -4 6 -9t5 -7q17 -17 21 -36q2 -10 -1.5 -27t-3.5 -22q-9 -96 45 -144q5 -5 19 -13t20 -14q5 -5 8 -10t5.5 -11.5t4.5 -10.5q4 -7 68 -93q14 -20 18.5 -17t-10.5 23q-3 4 -18.5 24.5t-21.5 32.5q-9 28 -8 28q14 -3 22 -8.5t19 -22t15 -20.5q4 -5 16.5 -19.5t19 -24.5 t11.5 -23q16 -41 66 -64q5 -3 18 -10.5t24 -12.5t19 -6t25.5 3t24.5 -2q5 -2 17.5 -15t21.5 -15q5 -2 18.5 -2.5t21.5 -6.5q9 -6 20.5 -22t18.5 -22q28 -19 43 -22q5 -1 16 2t17 1q13 -4 17.5 -19t-0.5 -29q-3 -11 -16 -27.5t-17 -25.5q-4 -11 -4.5 -30t-0.5 -22 q-1 -7 -5 -9t-3.5 -4t6.5 -18q7 -14 25 -40q32 -51 53 -71q5 -4 20 -14.5t25.5 -20t14.5 -19.5q9 -26 -2 -84q-3 -16 -7.5 -64.5t-11.5 -71.5q-3 -10 -8.5 -25t-7 -20.5t-3 -21t3.5 -27.5l2 -6t1.5 -4t1 -2.5t0.5 -2.5t-0.5 -3.5t-1.5 -5.5t-3 -8q-1 -3 -1 -8t-2 -9 q-3 -7 -12 -19t-12 -19q24 -1 13 -17q52 4 102 15q-12 14 -12 16q0 3 10 17.5t11 17.5t5.5 18t7.5 19q2 3 15.5 10t11.5 21q38 1 54 11.5t22 45.5q-2 1 -4.5 2t-3.5 5v2q1 -5 19 -2.5t20 -0.5q1 -2 12 11.5t23.5 29.5t14.5 18q25 27 31 39q0 1 4.5 14.5t8.5 18.5l-1 -2 l-1 -2q7 11 15.5 16t21.5 8.5t20 6.5q10 4 11.5 6t3 6t7.5 10q7 6 14.5 10.5t10 9t5.5 18.5q2 9 1.5 31.5t3.5 30.5q5 15 23 31.5t23 23.5q25 39 6 60q-15 16 -66 28q-7 2 -28.5 5.5t-32.5 7.5q-5 2 -15 8t-14.5 7.5t-10.5 -2.5t-10 -17q-1 1 -6.5 3.5t-8.5 5t-2 4.5 q5 -1 11 1t9.5 5.5t1.5 5.5q-3 0 -14.5 -1.5t-18.5 -2.5t-11 0q2 5 10 18t8 15q1 15 -15.5 31.5t-32.5 20.5q-7 2 -19.5 3.5t-20.5 4.5t-17 10q-54 39 -80 42q-3 1 -10 -1t-11 -1q-9 1 -19.5 8t-16.5 9q-10 2 -20.5 -4.5t-14.5 -6.5q-5 0 -12 3.5t-11.5 4.5t-17.5 -5 q-10 -6 -16.5 -13.5t-8 -9.5t-9 -3.5t-19.5 3.5q-7 2 -31 0t-30 6q-14 9 -16 28.5t11 30.5q-3 -3 -5.5 0.5t-4.5 10t-4 8.5q-3 4 -18 2.5t-19 -0.5q-20 5 -22 11q0 4 1 9q1 4 5.5 12.5t9 16t7 15t-2 11.5t-16.5 4q-12 -1 -28.5 -20t-28.5 -21q-45 -10 -68 29q-22 37 3 77 t65 44q7 1 39.5 8t52 3.5t32.5 -22.5q1 -2 6 -10q21 -38 30 -26l3 7q2 7 -12 69q3 5 7.5 9.5t11.5 9.5t10 8q-1 0 -1 -0.5t-1 -0.5q2 2 20 14.5t21 20.5q1 2 -2.5 12t-0.5 16q2 4 10 5.5t10 4.5q3 3 6.5 13.5t7.5 14.5q3 4 13 8.5t13 7.5q5 5 17 19.5t22 19.5q4 2 11 8 t11 8.5t12 6.5t12.5 3t12.5 -3q-4 -4 -18 -11t-17 -12q-2 -3 8 -3q20 -1 27 2q12 4 30.5 17t21.5 15q37 25 94 13q12 -2 -18 39l-4 5q-2 2 -5 6t-4.5 5.5t-4 3.5t-5 1.5t-6 -2.5t-8.5 -6q-3 -2 -6 -8t-6 -13t-4 -9q-8 -16 -11.5 -19t-20.5 -12q0 1 1 1q-13 -5 -27 -4.5 t-19 15.5q-1 3 2.5 13.5t0.5 14.5q-4 7 -15.5 4t-21 -8t-22 -12.5t-16.5 -9.5q4 29 27.5 37.5t49.5 4t49 2.5q54 18 56 31q1 4 -1.5 9t-5.5 9t-9 9.5t-10 8.5t-10 8l-6 4q-26 23 -38 49q-14 34 -24 38q-9 2 -21 -6q-4 -3 -7 -13t-13 -12q-4 0 -8.5 2t-7.5 4.5t-7.5 7 l-5.5 5.5q-2 3 -8.5 13t-13 16t-14.5 7q-4 1 -22 7t-29 7t-25 -4q-4 -3 -5.5 -9.5t0 -15t3.5 -15.5t4.5 -16t3.5 -11q9 -23 8.5 -31t-19.5 -22q-4 -3 -11 -5t-6 -4t1 -16q1 -5 5 -11t5 -8.5t-3 -9.5q-10 -10 -30 -3q-13 6 -11.5 19t-2.5 23q-4 5 -17 10t-29.5 10.5 t-21.5 7.5q-6 3 -21 8t-25.5 9t-25 11t-20 14.5t-10 18.5t4.5 23q11 21 49 44q5 3 19.5 9.5t20.5 13.5q3 3 6.5 15t5.5 14q4 3 14 3.5t19 0t10 -0.5q5 9 12.5 22t27 33t33.5 17q9 -1 18 -6.5t20.5 -15t15.5 -11.5q3 -2 7 -4.5t5.5 -3.5t4 -3t3 -3t1 -3.5t-0.5 -5.5t-2 -7 q-2 -8 -26 -27q-5 -4 -19 -9t-16 -6h11h10.5h9t8.5 -0.5t7.5 -1.5t8.5 -2t7.5 -3t9 -4.5t9.5 -5.5q41 -28 72 -27q-1 7 -15 11.5t-13 12.5q2 6 5 5t8 -5l6 -4q1 0 8 -1.5t10.5 -1.5t6.5 4t1 12t-14 12.5t-20 11.5t-1 22q11 1 17 -11.5t12 -14.5q10 -4 22 5.5t14 19.5 q-1 1 -27.5 12t-39 21.5t-9.5 23.5q42 -26 126 -80q-22 -20 3 -18q5 1 17 3q7 1 8 1q12 -2 21 -16q7 -10 -2 -12q-7 -2 -22.5 6t-21.5 -4q2 -1 12 -2.5t16.5 -3.5t15.5 -6t9.5 -9t-1.5 -14q-2 -4 -22 -11t-26 -19h11t11 1q-5 -7 -5.5 -13.5t2 -13t6 -11.5t9 -12t8.5 -11 q1 -2 5.5 -8.5t6.5 -9.5t7 -9.5t8 -10t8 -8.5t9 -7.5t9.5 -5.5t10.5 -4q21 -5 35 7.5t20.5 31t18 37.5t26.5 24q7 3 21 3.5t20 1.5q6 2 11.5 5.5t12 9t9.5 8.5q14 9 29.5 13.5t25.5 5t34 1.5h2q-200 211 -481 266q-35 -12 -58 -28q4 -1 14 -2.5t14 -1.5q-6 -19 -26.5 -22.5 t-51 2.5t-36.5 6q61 24 77 35q4 4 5 10t9 10q-62 9 -124 9q-95 0 -189 -20h3q-14 -8 -24.5 -23.5t-0.5 -26.5q4 -6 11.5 -4.5t12.5 4.5t12.5 8.5t11.5 7.5q16 8 35 13t48 9t37 5q-3 -8 -18.5 -11t-35.5 -3.5t-27 -3.5q-11 -4 -14 -8t-6.5 -14.5t-9.5 -20.5q4 1 11.5 -1 t10.5 -2v-5q-3 0 -9.5 1.5t-9.5 1.5t-7 -0.5t-6.5 -3.5t-3.5 -9q-16 23 -28 23t-30 -22q14 -8 20.5 -13.5t12 -16.5t-5.5 -20q-14 -17 -22 -7q-8 11 4 23q2 2 5 4l-14 7t-14 6.5t-11 0t-12 -8.5q3 0 10 -1.5t10 -1.5q-1 -2 -3 -8.5t-4 -11.5t-4 -6q-7 -1 -14.5 0t-20 4 t-15.5 3q-33 4 -72 1q3 -17 -12 -11q-6 2 -21 12q-6 4 -8 5q14 15 36 15.5t38 -4.5q53 -7 56 24q-5 1 -13 2.5t-11 2t-8 2.5t-8 5.5t-7 8.5q-8 14 -9 21q-218 -89 -366 -274zM1799 720q3 -31 3 -35t-2 -21t-0.5 -26.5t7.5 -19.5q14 -23 51 -56q29 -24 44 -28q31 116 31 234 q0 67 -11 138q-20 -15 -31 -37q-3 -5 -6 -12t-6 -12t-8 -10q-4 -3 -17 -11t-19 -16q-6 -7 -9.5 -19t-6.5 -18q-2 -3 -8.5 -8.5t-8.5 -9.5q-6 -2 -3 -33zM1844 1024q0 -5 1 -11t1 -9t-1 -9.5t-0.5 -11t3.5 -8.5q5 -9 22 -24q14 -14 25 -13q16 0 20 4q0 1 1 1q-13 65 -36 131 q-2 -4 -4 -5q-2 -2 -8 -5.5t-8 -6.5t-4 -8.5t-3 -7.5l-3.5 -3.5t-3.5 -4.5q-2 -4 -2 -9z" />
<glyph unicode="&#xf39d;" d="M-1 881q-6 -90 79 -154l1589 -523q5 -3 14.5 -7.5t37 -10.5t53.5 -3.5t61 23.5t63 61q71 100 111 274t40 326v29q0 152 -40 326t-111 274q-28 40 -62 61t-62.5 22.5t-52.5 -2.5t-38 -11l-14 -8l-1589 -522q-85 -64 -79 -155zM346 298v235l172 -56v-124q0 -65 19 -86.5 t88 -46.5q15 -6 72.5 -27t72.5 -26q17 -6 31 -8t24 2t17 7.5t11.5 14t7.5 16.5t4 20t1 18.5v18.5v15v91l171 -56v-220q0 -84 -68 -115t-147 -5q-133 43 -373 139q-103 41 -103 193zM1632 881q0 228 46 389t111 161t111.5 -161t46.5 -389q0 -227 -46.5 -388t-111.5 -161 t-111 161t-46 388z" />
<glyph unicode="&#xf39e;" d="M0 1128l181 -286l249 141v430zM511 -14v1456l304 108q4 -3 11 -9t29.5 -20.5t46 -25.5t59 -20.5t69.5 -10.5q54 1 108 22.5t81 42.5l27 21l290 -108v-1456h-1025zM1618 983v430l430 -285l-181 -286z" />
<glyph unicode="&#xf39f;" d="M0 768q0 208 81 397.5t218.5 327t327 218.5t397.5 81t397.5 -81t327 -218.5t218.5 -327t81 -397.5t-81 -397.5t-218.5 -327t-327 -218.5t-397.5 -81t-397.5 81t-327 218.5t-218.5 327t-81 397.5zM560 768q0 -192 136 -328t328 -136t328 136t136 328t-136 328t-328 136 t-328 -136t-136 -328zM851 653q0 50 8 92q8 40 51 62q-27 14 -41 41q-13 27 -13 72q0 75 42 113q40 37 125 37q96 0 132 -39q37 -40 37 -114q0 -49 -12 -68q-12 -21 -49 -42q32 -14 49 -39q17 -26 17 -122q0 -72 -13 -104q-15 -35 -54 -55q-41 -22 -106 -22q-64 0 -103 21 q-37 21 -54 54q-16 33 -16 113zM996 614q0 -36 7 -48q8 -11 22 -11q16 0 21 11q6 10 6 49v75q0 32 -7 44t-22 12q-14 0 -20 -11q-7 -10 -7 -45v-76zM999 888q0 -27 6 -36q6 -10 19 -10q14 0 20 9q5 12 5 41v40q0 29 -5 39q-6 10 -20 10t-20 -10q-5 -12 -5 -39v-44z" />
<glyph unicode="&#xf400;" d="M209 395l130 -399h57l143 399h-55l-68 -197q-36 -109 -45 -148h-1q-12 52 -43 149l-62 196h-56zM582 -4h224v43h-172v144h155v43h-155v126h163v43h-215v-399zM849 193q0 -94 56 -148q56 -53 149 -53q60 0 123 22v192h-132v-42h81v-119q-18 -10 -68 -10q-71 0 -112.5 42.5 t-41.5 118.5q0 74 43.5 117t116.5 43q48 0 88 -17l13 42q-38 18 -100 18q-98 0 -156.5 -57.5t-59.5 -148.5zM1225 -4h53l42 126h141l43 -126h55l-136 399h-62zM1330 162l40 115q18 64 20 72h1q12 -46 21 -72l39 -115h-121zM1597 16q41 -26 102 -26q67 0 103.5 33t36.5 82 q0 43 -25 70t-77 47q-43 17 -61 33.5t-18 43.5q0 24 18.5 42t56.5 18q41 0 76 -19l14 42q-36 20 -88 20q-58 0 -93.5 -31t-35.5 -78q0 -76 105 -113q41 -15 58 -33t17 -46q0 -30 -22.5 -49t-60.5 -19q-50 0 -93 26z" />
<glyph unicode="&#xf401;" d="M3 709q16 -228 99 -391.5t230 -302.5q135 -128 330 -206t418 -62q420 28 697 325q131 140 207 330t62 419q-14 221 -101 396.5t-225 300.5q-330 297 -752 272q-125 -8 -223 -36q-290 -85 -477 -293q-61 -68 -109.5 -144.5t-88.5 -170.5t-58 -206.5t-9 -230.5zM533 743.5 q0 39.5 12 72.5t45.5 48t85.5 5q-1 19 -8.5 74.5t-7.5 88.5q1 151 91 243.5t245 103.5q113 9 207 -18.5t194 -80.5q-1 -62 -24 -115q-43 -101 -142 -81q-23 5 -66.5 23.5t-69.5 21.5q-59 6 -97 -13.5t-51.5 -58t-12.5 -85.5t16 -103h287q1 -5 3.5 -24t3.5 -27t2.5 -25.5 t1 -26.5t-1 -23.5t-3 -24t-7 -19.5t-11.5 -17q-22 -24 -69 -27t-93.5 4t-97.5 -1q-19 -118 -54 -187h486q42 -238 -75 -257q-22 -4 -51.5 -4t-69 2t-61.5 2h-534q-13 62 -7 101.5t24 82t37.5 75.5t33 81.5t9.5 100.5q-10 4 -78 3t-82 0q-10 46 -10 85.5z" />
<glyph unicode="&#xf402;" d="M375 978l89 148l-89 148l145 95l-16 172l171 23l60 162l164 -54l125 120l125 -120l164 54l60 -162l171 -23l-15 -172l144 -95l-89 -148l89 -148l-144 -95l15 -172l-171 -22l-60 -162l-164 54l-125 -120l-125 120l-164 -54l-60 162l-171 22l16 172zM675 -256v638l97 32 l97 31l73 -70l82 -79l82 79l73 70l97 -31l97 -32v-638l-355 215z" />
<glyph unicode="&#xf403;" d="M0 1464q0 -14 9 -45l375 -1543q7 -28 14 -40q22 -35 63 -44q9 -2 17.5 -2t19 1.5t16.5 3t18.5 5t16.5 4.5l172 42q-15 3 -42.5 6.5t-47 7t-35.5 9.5q-52 20 -84 64q-35 49 -38 108q-1 17 6 66l235 1604q-634 -154 -644 -157q-16 -4 -35 -18q-33 -28 -36 -72zM570 36 q3 -22 14 -39q23 -35 65 -42q15 -3 47 -7l981 -144q32 -6 48 -4q43 3 69 38q4 5 7 12t5 11.5t4 14.5t2.5 13.5t2.5 16.5t2 16l226 1541q5 28 4 48q-4 43 -40 67q-16 12 -38 16q-15 3 -47 7l-981 144q-38 5 -50 4q-44 -4 -68 -39q-12 -15 -17 -37q-1 -4 -6 -48l-226 -1541 q-6 -32 -4 -48zM981 719q-7 59 27 120q30 56 92.5 109t123.5 87t130 63q266 -220 266 -403q0 -85 -60.5 -129.5t-139.5 -31.5q-77 16 -109 66q14 -120 26 -158l1 -1v-2l-153 23v1q9 10 21 34q22 42 51 110q-19 -13 -22 -15q-43 -23 -105.5 -15t-97.5 42q-44 43 -51 100z" />
<glyph unicode="&#xf404;" d="M28.5 1011q59.5 245 229.5 436l110 -110q-141 -161 -190 -366t0 -410.5t190 -366.5l-107 -108q-171 191 -231.5 435.5t-1 489.5zM247 768q0 158 61.5 302t165.5 248t248 165.5t302 61.5q211 0 390 -104t283.5 -283t104.5 -390t-104.5 -390t-283.5 -283t-390 -104 q-158 0 -302 61.5t-248 165.5t-165.5 248t-61.5 302zM355 1543q143 124 320.5 187.5t356 62.5t355 -67t317.5 -192l-110 -111q-159 138 -361 187.5t-404 3.5t-363 -181zM357 -8l108 107q161 -136 364.5 -182.5t406.5 4t362 190.5l108 -107q-189 -169 -431 -229.5t-484.5 -4 t-433.5 221.5zM592 349q0 -15 1 -22q0 -2 3 -23q101 -36 212 -57q114 -20 213 -20q129 0 213 28q86 29 133 72q50 44 69 100q21 57 21 114q0 112 -72 184q-73 73 -247 122l-160 44q-52 15 -78 25q-30 13 -44 25q-16 11 -22 27q-5 17 -5 34q0 45 41 71q43 26 145 26 q108 0 182 -23q70 -22 119 -22q47 0 69 35t22 97q0 11 -1 16q0 2 -0.5 8t-0.5 10q-204 69 -390 69q-110 0 -193 -25q-77 -24 -129 -65q-51 -41 -74 -94q-23 -55 -23 -111q0 -107 68 -178q69 -72 242 -121l151 -43q91 -25 128 -50q37 -24 37 -71q0 -23 -8 -44t-29 -37 q-23 -17 -61 -25q-37 -10 -103 -10q-58 0 -109 9q-47 7 -93 20q-21 6 -77 20q-34 9 -61 9q-41 0 -66 -34q-23 -35 -23 -90zM1689 1327l110 111q163 -189 221 -428.5t1 -479.5t-219 -429l-108 108q133 160 179 360t-2 400t-182 358z" />
</font>
</defs>
</svg>
